<svg width="43" height="42" viewBox="0 0 43 42" fill="none" xmlns="http://www.w3.org/2000/svg">
<path d="M2.99424 21.4302C3.0518 21.1285 3.18307 20.9442 3.36647 20.6869C4.23784 19.4648 5.16972 18.2735 6.13044 17.1207C7.43863 15.551 8.83932 13.866 10.3754 12.5028C10.6971 12.2173 10.2352 13.265 10.1853 13.3963C9.6557 14.7904 8.95339 16.08 8.22916 17.3816C6.63025 20.2552 5.00476 23.1236 3.62782 26.1114C3.1476 27.1534 2.6304 28.1964 2.23395 29.2744C2.13513 29.5431 1.88643 30.0746 1.91716 30.3814C1.9415 30.6244 2.18327 29.9716 2.31315 29.7646C2.75174 29.0659 3.19735 28.3705 3.69117 27.7087C7.05201 23.2045 11.4032 19.3567 15.444 15.4839C17.3648 13.6429 19.3731 11.8817 21.2016 9.94867C21.6175 9.50901 21.7176 9.43776 21.661 10.0594C21.5723 11.0334 20.8835 11.9264 20.4176 12.7479C18.5442 16.0511 16.8787 19.4582 15.3648 22.9406C14.3464 25.2831 13.3662 27.6839 12.6959 30.1521C12.6764 30.2237 12.349 31.8649 12.482 31.7889C12.6632 31.6856 12.7715 31.2426 12.8543 31.0773C13.2378 30.3114 13.7414 29.6221 14.2798 28.9581C17.997 24.3734 22.3591 20.2721 26.4445 16.0216C28.83 13.5396 31.1477 10.991 33.8335 8.82582C34.0893 8.61959 35.3942 7.58437 35.3224 7.68715C33.0081 11.0025 31.056 14.7368 29.0817 18.2515C27.1584 21.6752 25.2376 25.152 23.6963 28.7683C23.3555 29.5681 23.1564 30.5706 22.738 31.3224C22.5874 31.5931 22.7853 31.4764 22.8885 31.3145C23.3202 30.6372 23.8052 30.1055 24.4249 29.5828C29.0998 25.6394 34.4957 22.4807 39.4723 18.9315C39.7128 18.76 42.1513 16.6983 41.0246 18.1566C38.712 21.1497 36.5557 24.216 34.7364 27.5664C34.0357 28.8568 33.0659 30.3215 32.6772 31.7573C32.5882 32.0864 32.8949 31.6431 32.9307 31.5359" stroke="#FF0000" stroke-opacity="0.75" stroke-width="3" stroke-linecap="round"/>
</svg>
