<svg width="234" height="50" viewBox="0 0 234 50" fill="none" xmlns="http://www.w3.org/2000/svg">
<g clip-path="url(#clip0_1757_1982)">
<path d="M161.266 4.40039H158.555V31.0247C158.531 31.2435 158.402 32.1157 157.896 32.918C157.468 33.5896 156.652 34.4861 154.489 34.4861C152.326 34.4861 151.51 33.5926 151.082 32.918C150.576 32.1187 150.446 31.2435 150.422 31.0247V4.40039H137.47V31.2678C137.479 31.4046 137.641 34.6502 139.217 38.1936C141.389 43.0772 145.16 46.256 150.127 47.3865C151.474 47.6995 152.947 47.8575 154.489 47.8575C156.031 47.8575 157.504 47.6995 158.86 47.3834C163.818 46.256 167.589 43.0772 169.761 38.1936C171.336 34.6502 171.499 31.4046 171.505 31.2678V4.40039H161.266Z" fill="#D7C831"/>
<path d="M119.095 4.40039H111.866H109.155V7.13545V14.7329V23.2419H107.95H105.239V25.977V33.5744V36.3095H107.95H109.155V44.5147V47.2497H111.866H119.095H121.806V44.5147V36.3095H127.228H129.939V33.5744V25.977V23.2419H127.228H121.806V17.4679H128.734H131.445V14.7329V7.13545V4.40039H128.734H119.095Z" fill="#D7C831"/>
<path d="M209.719 10.8551L208.884 2.43115L204.676 9.75504L195.022 26.5544L185.368 9.75504L181.16 2.43115L180.325 10.8551L177.024 44.1439L176.726 47.1525H179.723H186.621H188.991L189.308 44.7821L189.781 41.266L192.703 46.1344L195.022 50L197.341 46.1344L200.263 41.266L200.733 44.7821L201.052 47.1525H203.42H210.321H213.315L213.017 44.1439L209.719 10.8551Z" fill="#D7C831"/>
<path d="M64.7002 4.43384H61.9892V7.1689V14.821V23.242H55.2116V7.1689V4.43384H52.5006H43.7651H41.0541V7.1689V14.821V23.242H39.8492H37.1382V25.977V33.5744V36.3095H39.8492H41.0541V44.5147V47.2497H43.7651H52.5006H55.2116V44.5147V36.3095H61.9892V44.5147V47.2497H64.7002H73.4357H76.1467V44.5147V33.5744V25.977V7.1689V4.43384H73.4357H64.7002Z" fill="#D7C831"/>
<path d="M86.3883 4.43384H83.6772V7.1689V14.821V44.5147V47.2497H86.3883H95.1238H97.8348V44.5147V7.1689V4.43384H95.1238H86.3883Z" fill="#D7C831"/>
<path d="M231.289 4.43384H222.554H219.843V7.1689V14.821V44.5147V47.2497H222.554H231.289H234V44.5147V7.1689V4.43384H231.289Z" fill="#D7C831"/>
<path d="M25.3512 19.033L29.6949 16.4347L30.463 15.9758L32.7674 14.5992L31.4299 12.2592L30.9841 11.4781C29.5443 8.95581 27.749 7.00784 25.6494 5.68285L25.4295 5.54306L24.7699 5.12672H24.6795C22.7547 4.1269 20.6069 3.62244 18.2905 3.62244H18.2664C16.3386 3.62244 14.5252 3.92329 12.8775 4.51893C11.1877 5.12368 9.63335 6.05057 8.2688 7.27223L8.24772 7.29046L8.1935 7.33908C7.48863 7.97727 6.8651 8.66407 6.33193 9.39646H6.06384L5.33789 10.9828L5.0939 11.5146C4.36494 13.1222 4.00045 14.8757 4.00045 16.7355V16.7538C4.00045 17.9207 4.15408 19.0482 4.4553 20.1149V20.1574L4.59989 20.5889L4.6511 20.7379V20.747L4.65712 20.7561C4.98245 21.7042 5.44031 22.619 6.01564 23.476V23.482L6.02468 23.4881C6.58797 24.3147 7.26271 25.0927 8.02782 25.7977C9.23272 26.9039 10.7147 27.8825 12.4438 28.7182L11.6576 28.8914L10.6816 29.1072L5.25656 30.3106L4.54567 30.4686L2.41602 30.9396V34.1306L2.44313 34.322L2.45216 34.3919V34.4071C2.75037 36.4341 3.29258 38.2818 4.06672 39.9015C4.86196 41.573 5.91925 43.0377 7.20849 44.2533L7.21452 44.2594L7.26874 44.3111L7.28681 44.3293L7.29284 44.3354L7.29886 44.3415C8.64533 45.5783 10.2027 46.5204 11.9196 47.1434L12.0672 47.1981L12.51 47.3591H12.5582C14.0403 47.818 15.6458 48.049 17.3387 48.049H17.3597C18.3869 48.049 19.39 47.9609 20.3389 47.7876C21.2967 47.6144 22.2486 47.3439 23.1523 46.9854C24.0529 46.6268 24.9235 46.1739 25.7428 45.6361C26.5531 45.1012 27.3212 44.4721 28.0381 43.7671C29.2882 42.5333 30.2853 41.1262 31.0022 39.5824L31.0173 39.5521L31.0293 39.5217L31.2793 38.9503L31.2974 38.9078L31.3155 38.8652C32.0233 37.0844 32.3848 35.1182 32.3878 33.0244V32.9727C32.3848 31.5961 32.2161 30.2893 31.8878 29.0707V29.0342L31.7613 28.627L31.7161 28.4872V28.4781L31.7101 28.469C31.2462 27.0194 30.5353 25.6822 29.6045 24.5001C28.7069 23.3605 27.5652 22.3181 26.2157 21.4003C25.4717 20.8959 24.6554 20.4188 23.7698 19.972L24.565 19.4949L25.3542 19.0239L25.3512 19.033ZM19.4141 32.2039L19.4382 32.2342L19.4472 32.2434C19.5406 32.3619 19.6069 32.4804 19.646 32.5989L19.6731 32.684C19.7244 32.8755 19.7545 33.1125 19.7545 33.3738C19.7545 33.7507 19.7063 34.085 19.6099 34.3646L19.5918 34.4071V34.4193L19.5828 34.4314C19.4894 34.6745 19.3478 34.8903 19.152 35.0909L19.0556 35.1881C18.899 35.334 18.7273 35.4495 18.5466 35.5285L18.5014 35.5467H18.4954L18.4893 35.5528C18.2423 35.6531 17.92 35.7078 17.5586 35.7078C16.92 35.7078 16.5374 35.5893 16.3326 35.489C16.203 35.4282 16.0946 35.3553 15.9952 35.2732C15.935 35.2215 15.8747 35.1638 15.8145 35.0939L15.7271 34.9176L15.5825 34.7657C15.5434 34.6776 15.4831 34.5317 15.4199 34.3129C15.2632 33.7841 15.1337 33.076 15.0403 32.2646L14.9259 31.2618L14.7511 29.7362L16.8748 30.6266L16.8898 30.6327C17.5796 30.9305 18.167 31.2405 18.6369 31.5505C18.9803 31.7784 19.2424 32.0002 19.4171 32.2099L19.4141 32.2039ZM18.2845 17.6412C17.8477 17.4619 17.4742 17.2704 17.17 17.0759C16.8898 16.8966 16.7513 16.772 16.685 16.696L16.679 16.6869V16.6657L16.685 16.6535V16.6413H16.688L16.7061 16.5988L16.7121 16.5866C16.7302 16.5593 16.7724 16.5076 16.8477 16.4438L16.8778 16.4195L16.9531 16.3557C17.0706 16.2645 17.2001 16.1977 17.3477 16.146L17.4381 16.1156C17.6549 16.0548 17.911 16.0214 18.1941 16.0214H18.2273C18.5405 16.0214 18.7906 16.0457 18.9954 16.0974C19.1038 16.1247 19.1701 16.1521 19.2093 16.1703L19.2213 16.1794L19.3237 16.2432L19.3298 16.2493L19.3388 16.2554C19.3779 16.2888 19.4472 16.3587 19.5587 16.4924C19.8027 16.7811 20.0768 17.1944 20.372 17.7141L20.8299 18.5164L20.9624 18.7473L18.2845 17.6442V17.6412Z" fill="#D7C831"/>
<path d="M160.965 4.0965H158.254V30.7208C158.23 30.9396 158.101 31.8118 157.594 32.6141C157.167 33.2857 156.35 34.1822 154.188 34.1822C152.025 34.1822 151.209 33.2887 150.781 32.6141C150.275 31.8148 150.145 30.9396 150.121 30.7208V4.0965H137.168V30.9639C137.177 31.1007 137.34 34.3463 138.916 37.8897C141.087 42.7733 144.859 45.9521 149.826 47.0826C151.172 47.3956 152.645 47.5536 154.188 47.5536C155.73 47.5536 157.203 47.3956 158.558 47.0795C163.517 45.9521 167.288 42.7733 169.46 37.8897C171.035 34.3463 171.198 31.1007 171.204 30.9639V4.0965H160.965Z" fill="#D7C831"/>
<path d="M118.794 4.0965H111.564H108.853V6.83156V14.429V22.938H107.649H104.938V25.6731V33.2705V36.0056H107.649H108.853V44.2108V46.9458H111.564H118.794H121.505V44.2108V36.0056H126.927H129.638V33.2705V25.6731V22.938H126.927H121.505V17.164H128.433H131.144V14.429V6.83156V4.0965H128.433H118.794Z" fill="#D7C831"/>
<path d="M209.417 10.5513L208.583 2.12726L204.375 9.45115L194.721 26.2505L185.066 9.45115L180.858 2.12726L180.024 10.5513L176.723 43.84L176.424 46.8486H179.422H186.32H188.69L189.006 44.4782L189.479 40.9621L192.401 45.8305L194.721 49.6961L197.04 45.8305L199.962 40.9621L200.432 44.4782L200.751 46.8486H203.119H210.02H213.014L212.716 43.84L209.417 10.5513Z" fill="#D7C831"/>
<path d="M64.3989 4.12994H61.6879V6.86501V14.5171V22.9381H54.9104V6.86501V4.12994H52.1993H43.4638H40.7528V6.86501V14.5171V22.9381H39.5479H36.8369V25.6731V33.2705V36.0056H39.5479H40.7528V44.2108V46.9458H43.4638H52.1993H54.9104V44.2108V36.0056H61.6879V44.2108V46.9458H64.3989H73.1344H75.8454V44.2108V33.2705V25.6731V6.86501V4.12994H73.1344H64.3989Z" fill="#D7C831"/>
<path d="M86.087 4.12994H83.376V6.86501V14.5171V44.2108V46.9458H86.087H94.8225H97.5335V44.2108V6.86501V4.12994H94.8225H86.087Z" fill="#D7C831"/>
<path d="M230.988 4.12994H222.253H219.542V6.86501V14.5171V44.2108V46.9458H222.253H230.988H233.699V44.2108V6.86501V4.12994H230.988Z" fill="#D7C831"/>
<path d="M25.05 18.7291L29.3936 16.1308L30.1617 15.6719L32.4661 14.2953L31.1287 11.9553L30.6828 11.1743C29.243 8.65192 27.4477 6.70394 25.3482 5.37896L25.1283 5.23916L24.4686 4.82283H24.3782C22.4534 3.82301 20.3057 3.31854 17.9893 3.31854H17.9652C16.0373 3.31854 14.224 3.6194 12.5763 4.21504C10.8864 4.81979 9.33208 5.74667 7.96753 6.96833L7.94645 6.98657L7.89223 7.03519C7.18736 7.67337 6.56383 8.36018 6.03066 9.09257H5.76257L5.03662 10.6789L4.79263 11.2107C4.06367 12.8183 3.69919 14.5718 3.69919 16.4317V16.4499C3.69919 17.6168 3.85281 18.7443 4.15403 19.811V19.8535L4.29862 20.2851L4.34983 20.434V20.4431L4.35585 20.4522C4.68118 21.4004 5.13904 22.3151 5.71438 23.1721V23.1781L5.72341 23.1842C6.2867 24.0108 6.96144 24.7888 7.72655 25.4938C8.93145 26.6 10.4135 27.5786 12.1425 28.4143L11.3563 28.5875L10.3803 28.8033L4.95529 30.0067L4.2444 30.1647L2.11475 30.6357V33.8267L2.14186 34.0181L2.15089 34.088V34.1032C2.4491 36.1302 2.99131 37.9779 3.76545 39.5976C4.56069 41.2691 5.61798 42.7338 6.90722 43.9494L6.91325 43.9555L6.96747 44.0072L6.98554 44.0254L6.99157 44.0315L6.99759 44.0376C8.34406 45.2744 9.90139 46.2165 11.6184 46.8395L11.766 46.8942L12.2088 47.0552H12.257C13.739 47.5141 15.3445 47.7451 17.0374 47.7451H17.0585C18.0857 47.7451 19.0887 47.657 20.0376 47.4837C20.9955 47.3105 21.9473 47.0401 22.851 46.6815C23.7517 46.3229 24.6222 45.8701 25.4415 45.3322C26.2518 44.7973 27.02 44.1682 27.7369 43.4632C28.987 42.2294 29.984 40.8223 30.7009 39.2785L30.716 39.2482L30.728 39.2178L30.978 38.6464L30.9961 38.6039L31.0142 38.5614C31.7221 36.7805 32.0835 34.8143 32.0866 32.7205V32.6688C32.0835 31.2922 31.9149 29.9854 31.5865 28.7668V28.7303L31.46 28.3231L31.4148 28.1833V28.1742L31.4088 28.1651C30.9449 26.7155 30.234 25.3784 29.3032 24.1962C28.4056 23.0566 27.264 22.0142 25.9145 21.0965C25.1704 20.592 24.3541 20.1149 23.4685 19.6681L24.2638 19.191L25.053 18.72L25.05 18.7291ZM19.1128 31.9L19.1369 31.9303L19.146 31.9395C19.2393 32.058 19.3056 32.1765 19.3448 32.295L19.3719 32.3801C19.4231 32.5716 19.4532 32.8086 19.4532 33.07C19.4532 33.4468 19.405 33.7811 19.3086 34.0607L19.2906 34.1032V34.1154L19.2815 34.1275C19.1881 34.3706 19.0466 34.5864 18.8508 34.787L18.7544 34.8842C18.5977 35.0301 18.426 35.1456 18.2453 35.2246L18.2001 35.2428H18.1941L18.1881 35.2489C17.9411 35.3492 17.6188 35.4039 17.2573 35.4039C16.6187 35.4039 16.2361 35.2854 16.0313 35.1851C15.9018 35.1243 15.7933 35.0514 15.6939 34.9693C15.6337 34.9176 15.5734 34.8599 15.5132 34.79L15.4258 34.6137L15.2813 34.4618C15.2421 34.3737 15.1819 34.2278 15.1186 34.009C14.962 33.4802 14.8324 32.7721 14.7391 31.9607L14.6246 30.9579L14.4499 29.4323L16.5735 30.3227L16.5886 30.3288C17.2784 30.6266 17.8658 30.9366 18.3357 31.2466C18.6791 31.4745 18.9411 31.6963 19.1158 31.906L19.1128 31.9ZM17.9832 17.3373C17.5465 17.158 17.1729 16.9665 16.8687 16.772C16.5886 16.5927 16.45 16.4681 16.3837 16.3921L16.3777 16.383V16.3618L16.3837 16.3496V16.3374H16.3867L16.4048 16.2949L16.4108 16.2827C16.4289 16.2554 16.4711 16.2037 16.5464 16.1399L16.5765 16.1156L16.6518 16.0518C16.7693 15.9606 16.8988 15.8938 17.0464 15.8421L17.1368 15.8117C17.3537 15.7509 17.6097 15.7175 17.8929 15.7175H17.926C18.2393 15.7175 18.4893 15.7418 18.6941 15.7935C18.8026 15.8208 18.8688 15.8482 18.908 15.8664L18.92 15.8755L19.0225 15.9393L19.0285 15.9454L19.0375 15.9515C19.0767 15.9849 19.146 16.0548 19.2574 16.1885C19.5014 16.4772 19.7755 16.8905 20.0707 17.4102L20.5286 18.2125L20.6611 18.4434L17.9832 17.3403V17.3373Z" fill="#D7C831"/>
<path d="M160.664 3.7926H157.953V30.4169C157.929 30.6357 157.799 31.5079 157.293 32.3102C156.865 32.9818 156.049 33.8783 153.886 33.8783C151.724 33.8783 150.907 32.9848 150.48 32.3102C149.973 31.511 149.844 30.6357 149.82 30.4169V3.7926H136.867V30.66C136.876 30.7968 137.039 34.0424 138.614 37.5858C140.786 42.4694 144.557 45.6482 149.525 46.7787C150.871 47.0917 152.344 47.2497 153.886 47.2497C155.429 47.2497 156.902 47.0917 158.257 46.7756C163.215 45.6482 166.987 42.4694 169.158 37.5858C170.734 34.0424 170.896 30.7968 170.903 30.66V3.7926H160.664Z" fill="#D7C831"/>
<path d="M118.493 3.7926H111.263H108.552V6.52767V14.1251V22.6342H107.347H104.636V25.3692V32.9666V35.7017H107.347H108.552V43.9069V46.6419H111.263H118.493H121.204V43.9069V35.7017H126.626H129.337V32.9666V25.3692V22.6342H126.626H121.204V16.8601H128.132H130.843V14.1251V6.52767V3.7926H128.132H118.493Z" fill="#D7C831"/>
<path d="M209.116 10.2474L208.282 1.82336L204.074 9.14726L194.419 25.9466L184.765 9.14726L180.557 1.82336L179.723 10.2474L176.421 43.5361L176.123 46.5447H179.12H186.018H188.389L188.705 44.1743L189.178 40.6582L192.1 45.5266L194.419 49.3922L196.739 45.5266L199.661 40.6582L200.131 44.1743L200.45 46.5447H202.818H209.719H212.713L212.415 43.5361L209.116 10.2474Z" fill="#D7C831"/>
<path d="M64.0977 3.82605H61.3866V6.56111V14.2132V22.6342H54.6091V6.56111V3.82605H51.8981H43.1626H40.4516V6.56111V14.2132V22.6342H39.2467H36.5356V25.3692V32.9666V35.7017H39.2467H40.4516V43.9069V46.6419H43.1626H51.8981H54.6091V43.9069V35.7017H61.3866V43.9069V46.6419H64.0977H72.8332H75.5442V43.9069V32.9666V25.3692V6.56111V3.82605H72.8332H64.0977Z" fill="#D7C831"/>
<path d="M85.7857 3.82605H83.0747V6.56111V14.2132V43.9069V46.6419H85.7857H94.5212H97.2322V43.9069V6.56111V3.82605H94.5212H85.7857Z" fill="#D7C831"/>
<path d="M230.687 3.82605H221.951H219.24V6.56111V14.2132V43.9069V46.6419H221.951H230.687H233.398V43.9069V6.56111V3.82605H230.687Z" fill="#D7C831"/>
<path d="M24.7487 18.4252L29.0923 15.8269L29.8605 15.368L32.1648 13.9914L30.8274 11.6514L30.3816 10.8704C28.9417 8.34802 27.1464 6.40005 25.0469 5.07506L24.827 4.93527L24.1673 4.51893H24.077C22.1521 3.51912 20.0044 3.01465 17.688 3.01465H17.6639C15.7361 3.01465 13.9227 3.31551 12.275 3.91114C10.5851 4.51589 9.03081 5.44278 7.66626 6.66444L7.64518 6.68267L7.59096 6.7313C6.88609 7.36948 6.26256 8.05628 5.72939 8.78867H5.4613L4.73535 10.375L4.49136 10.9068C3.7624 12.5144 3.39792 14.2679 3.39792 16.1278V16.146C3.39792 17.313 3.55154 18.4404 3.85276 19.5071V19.5496L3.99735 19.9812L4.04856 20.1301V20.1392L4.05458 20.1483C4.37991 21.0965 4.83777 22.0112 5.41311 22.8682V22.8742L5.42214 22.8803C5.98543 23.7069 6.66017 24.4849 7.42528 25.1899C8.63018 26.2961 10.1122 27.2747 11.8412 28.1104L11.055 28.2836L10.0791 28.4994L4.65402 29.7028L3.94313 29.8608L1.81348 30.3319V33.5228L1.84059 33.7142L1.84962 33.7841V33.7993C2.14784 35.8263 2.69004 37.674 3.46419 39.2937C4.25942 40.9652 5.31671 42.43 6.60595 43.6455L6.61198 43.6516L6.6662 43.7033L6.68427 43.7215L6.6903 43.7276L6.69632 43.7337C8.04279 44.9705 9.60012 45.9126 11.3171 46.5356L11.4647 46.5903L11.9075 46.7514H11.9557C13.4377 47.2102 15.0432 47.4412 16.7361 47.4412H16.7572C17.7844 47.4412 18.7875 47.3531 19.7363 47.1798C20.6942 47.0066 21.6461 46.7362 22.5498 46.3776C23.4504 46.019 24.3209 45.5662 25.1403 45.0283C25.9506 44.4934 26.7187 43.8643 27.4356 43.1593C28.6857 41.9255 29.6827 40.5184 30.3997 38.9747L30.4147 38.9443L30.4268 38.9139L30.6768 38.3426L30.6949 38.3L30.7129 38.2575C31.4208 36.4766 31.7823 34.5104 31.7853 32.4166V32.3649C31.7823 30.9883 31.6136 29.6815 31.2853 28.4629V28.4264L31.1587 28.0192L31.1136 27.8794V27.8703L31.1075 27.8612C30.6436 26.4116 29.9328 25.0745 29.002 23.8923C28.1043 22.7527 26.9627 21.7103 25.6132 20.7926C24.8692 20.2881 24.0529 19.811 23.1673 19.3643L23.9625 18.8871L24.7517 18.4161L24.7487 18.4252ZM18.8116 31.5961L18.8357 31.6265L18.8447 31.6356C18.9381 31.7541 19.0043 31.8726 19.0435 31.9911L19.0706 32.0762C19.1218 32.2677 19.1519 32.5047 19.1519 32.7661C19.1519 33.1429 19.1037 33.4772 19.0074 33.7568L18.9893 33.7993V33.8115L18.9802 33.8236C18.8869 34.0667 18.7453 34.2825 18.5495 34.4831L18.4531 34.5803C18.2965 34.7262 18.1248 34.8417 17.944 34.9207L17.8988 34.9389H17.8928L17.8868 34.945C17.6398 35.0453 17.3175 35.1 16.956 35.1C16.3174 35.1 15.9349 34.9815 15.73 34.8812C15.6005 34.8204 15.4921 34.7475 15.3927 34.6654C15.3324 34.6138 15.2722 34.556 15.2119 34.4861L15.1246 34.3099L14.98 34.1579C14.9408 34.0698 14.8806 33.9239 14.8173 33.7051C14.6607 33.1763 14.5312 32.4682 14.4378 31.6568L14.3233 30.654L14.1486 29.1284L16.2722 30.0188L16.2873 30.0249C16.9771 30.3227 17.5645 30.6327 18.0344 30.9427C18.3778 31.1706 18.6399 31.3925 18.8146 31.6021L18.8116 31.5961ZM17.682 17.0334C17.2452 16.8541 16.8717 16.6626 16.5674 16.4681C16.2873 16.2888 16.1487 16.1642 16.0825 16.0883L16.0764 16.0791V16.0579L16.0825 16.0457V16.0336H16.0855L16.1036 15.991L16.1096 15.9789C16.1277 15.9515 16.1698 15.8998 16.2451 15.836L16.2753 15.8117L16.3506 15.7479C16.468 15.6567 16.5976 15.5899 16.7452 15.5382L16.8355 15.5078C17.0524 15.447 17.3084 15.4136 17.5916 15.4136H17.6247C17.938 15.4136 18.188 15.4379 18.3929 15.4896C18.5013 15.5169 18.5676 15.5443 18.6067 15.5625L18.6188 15.5716L18.7212 15.6354L18.7272 15.6415L18.7363 15.6476C18.7754 15.681 18.8447 15.7509 18.9561 15.8846C19.2001 16.1733 19.4743 16.5866 19.7695 17.1063L20.2273 17.9086L20.3598 18.1395L17.682 17.0364V17.0334Z" fill="#D7C831"/>
<path d="M160.363 3.48871H157.652V30.113C157.628 30.3318 157.498 31.204 156.992 32.0063C156.564 32.6779 155.748 33.5744 153.585 33.5744C151.422 33.5744 150.606 32.681 150.178 32.0063C149.672 31.2071 149.543 30.3318 149.519 30.113V3.48871H136.566V30.3561C136.575 30.4929 136.738 33.7385 138.313 37.2819C140.485 42.1655 144.256 45.3443 149.223 46.4748C150.57 46.7878 152.043 46.9458 153.585 46.9458C155.127 46.9458 156.6 46.7878 157.956 46.4718C162.914 45.3443 166.685 42.1655 168.857 37.2819C170.433 33.7385 170.595 30.4929 170.601 30.3561V3.48871H160.363Z" fill="#D7C831"/>
<path d="M118.191 3.48871H110.962H108.251V6.22377V13.8212V22.3303H107.046H104.335V25.0653V32.6627V35.3978H107.046H108.251V43.603V46.338H110.962H118.191H120.902V43.603V35.3978H126.324H129.035V32.6627V25.0653V22.3303H126.324H120.902V16.5562H127.83H130.541V13.8212V6.22377V3.48871H127.83H118.191Z" fill="#D7C831"/>
<path d="M208.815 9.94347L207.98 1.51947L203.772 8.84336L194.118 25.6427L184.464 8.84336L180.256 1.51947L179.421 9.94347L176.12 43.2322L175.822 46.2408H178.819H185.717H188.088L188.404 43.8704L188.877 40.3543L191.799 45.2227L194.118 49.0883L196.438 45.2227L199.359 40.3543L199.829 43.8704L200.149 46.2408H202.516H209.417H212.411L212.113 43.2322L208.815 9.94347Z" fill="#D7C831"/>
<path d="M63.7964 3.52216H61.0854V6.25722V13.9093V22.3303H54.3078V6.25722V3.52216H51.5968H42.8613H40.1503V6.25722V13.9093V22.3303H38.9454H36.2344V25.0653V32.6627V35.3978H38.9454H40.1503V43.603V46.3381H42.8613H51.5968H54.3078V43.603V35.3978H61.0854V43.603V46.3381H63.7964H72.5319H75.2429V43.603V32.6627V25.0653V6.25722V3.52216H72.5319H63.7964Z" fill="#D7C831"/>
<path d="M85.4845 3.52216H82.7734V6.25722V13.9093V43.603V46.3381H85.4845H94.22H96.931V43.603V6.25722V3.52216H94.22H85.4845Z" fill="#D7C831"/>
<path d="M230.385 3.52216H221.65H218.939V6.25722V13.9093V43.603V46.3381H221.65H230.385H233.097V43.603V6.25722V3.52216H230.385Z" fill="#D7C831"/>
<path d="M24.4474 18.1213L28.7911 15.523L29.5592 15.0641L31.8636 13.6875L30.5261 11.3475L30.0803 10.5665C28.6405 8.04413 26.8452 6.09616 24.7456 4.77117L24.5257 4.63138L23.8661 4.21504H23.7757C21.8509 3.21522 19.7031 2.71075 17.3867 2.71075H17.3626C15.4348 2.71075 13.6214 3.01161 11.9737 3.60725C10.2839 4.212 8.72954 5.13888 7.36499 6.36054L7.34391 6.37878L7.28969 6.4274C6.58482 7.06558 5.96129 7.75239 5.42812 8.48478H5.16003L4.43408 10.0711L4.19009 10.6029C3.46113 12.2105 3.09665 13.964 3.09665 15.8239V15.8421C3.09665 17.0091 3.25027 18.1365 3.55149 19.2032V19.2457L3.69608 19.6773L3.74729 19.8262V19.8353L3.75332 19.8444C4.07864 20.7926 4.5365 21.7073 5.11184 22.5643V22.5704L5.12087 22.5764C5.68416 23.403 6.3589 24.181 7.12401 24.886C8.32891 25.9922 9.81093 26.9708 11.54 27.8065L10.7538 27.9797L9.7778 28.1955L4.35275 29.3989L3.64186 29.5569L1.51221 30.028V33.2189L1.53932 33.4103L1.54835 33.4802V33.4954C1.84657 35.5224 2.38877 37.3701 3.16292 38.9899C3.95815 40.6613 5.01544 42.1261 6.30468 43.3416L6.31071 43.3477L6.36493 43.3994L6.383 43.4176L6.38903 43.4237L6.39505 43.4298C7.74152 44.6666 9.29885 45.6087 11.0158 46.2317L11.1634 46.2864L11.6062 46.4475H11.6544C13.1364 46.9063 14.742 47.1373 16.4349 47.1373H16.4559C17.4831 47.1373 18.4862 47.0492 19.435 46.876C20.3929 46.7027 21.3448 46.4323 22.2485 46.0737C23.1491 45.7151 24.0197 45.2623 24.839 44.7244C25.6493 44.1895 26.4174 43.5605 27.1343 42.8554C28.3844 41.6216 29.3815 40.2146 30.0984 38.6708L30.1134 38.6404L30.1255 38.61L30.3755 38.0387L30.3936 37.9961L30.4117 37.9536C31.1195 36.1727 31.481 34.2065 31.484 32.1127V32.061C31.481 30.6844 31.3123 29.3776 30.984 28.159V28.1225L30.8575 27.7153L30.8123 27.5755V27.5664L30.8063 27.5573C30.3424 26.1077 29.6315 24.7706 28.7007 23.5884C27.8031 22.4488 26.6614 21.4064 25.3119 20.4887C24.5679 19.9842 23.7516 19.5071 22.866 19.0604L23.6612 18.5832L24.4504 18.1122L24.4474 18.1213ZM18.5103 31.2922L18.5344 31.3226L18.5434 31.3317C18.6368 31.4502 18.7031 31.5687 18.7422 31.6872L18.7693 31.7723C18.8205 31.9638 18.8507 32.2008 18.8507 32.4622C18.8507 32.839 18.8025 33.1733 18.7061 33.4529L18.688 33.4954V33.5076L18.679 33.5197C18.5856 33.7628 18.444 33.9786 18.2482 34.1792L18.1518 34.2764C17.9952 34.4223 17.8235 34.5378 17.6428 34.6168L17.5976 34.635H17.5916L17.5855 34.6411C17.3385 34.7414 17.0162 34.7961 16.6547 34.7961C16.0162 34.7961 15.6336 34.6776 15.4288 34.5773C15.2992 34.5165 15.1908 34.4436 15.0914 34.3615C15.0311 34.3099 14.9709 34.2521 14.9107 34.1822L14.8233 34.006L14.6787 33.854C14.6396 33.7659 14.5793 33.62 14.5161 33.4012C14.3594 32.8724 14.2299 32.1644 14.1365 31.3529L14.022 30.3501L13.8473 28.8245L15.971 29.7149L15.986 29.721C16.6758 30.0188 17.2632 30.3288 17.7331 30.6388C18.0765 30.8667 18.3386 31.0886 18.5133 31.2982L18.5103 31.2922ZM17.3807 16.7295C16.9439 16.5502 16.5704 16.3587 16.2662 16.1642C15.986 15.9849 15.8475 15.8603 15.7812 15.7844L15.7752 15.7752V15.754L15.7812 15.7418V15.7297H15.7842L15.8023 15.6871L15.8083 15.675C15.8264 15.6476 15.8686 15.5959 15.9439 15.5321L15.974 15.5078L16.0493 15.444C16.1668 15.3528 16.2963 15.286 16.4439 15.2343L16.5343 15.2039C16.7511 15.1431 17.0072 15.1097 17.2903 15.1097H17.3235C17.6367 15.1097 17.8868 15.134 18.0916 15.1857C18.2 15.213 18.2663 15.2404 18.3055 15.2586L18.3175 15.2677L18.4199 15.3316L18.4259 15.3376L18.435 15.3437C18.4741 15.3771 18.5434 15.447 18.6549 15.5807C18.8989 15.8694 19.173 16.2827 19.4682 16.8024L19.926 17.6047L20.0586 17.8357L17.3807 16.7325V16.7295Z" fill="#D7C831"/>
<path d="M160.061 3.18481H157.35V29.8091C157.326 30.0279 157.197 30.9001 156.691 31.7024C156.263 32.374 155.447 33.2705 153.284 33.2705C151.121 33.2705 150.305 32.3771 149.877 31.7024C149.371 30.9032 149.241 30.0279 149.217 29.8091V3.18481H136.265V30.0523C136.274 30.189 136.436 33.4346 138.012 36.978C140.184 41.8617 143.955 45.0404 148.922 46.1709C150.269 46.4839 151.742 46.6419 153.284 46.6419C154.826 46.6419 156.299 46.4839 157.655 46.1679C162.613 45.0404 166.384 41.8617 168.556 36.978C170.131 33.4346 170.294 30.189 170.3 30.0523V3.18481H160.061Z" fill="#D7C831"/>
<path d="M117.89 3.18481H110.661H107.95V5.91988V13.5173V22.0264H106.745H104.034V24.7614V32.3588V35.0939H106.745H107.95V43.2991V46.0341H110.661H117.89H120.601V43.2991V35.0939H126.023H128.734V32.3588V24.7614V22.0264H126.023H120.601V16.2523H127.529H130.24V13.5173V5.91988V3.18481H127.529H117.89Z" fill="#D7C831"/>
<path d="M208.514 9.63957L207.679 1.21558L203.471 8.53947L193.817 25.3388L184.163 8.53947L179.955 1.21558L179.12 9.63957L175.819 42.9283L175.521 45.9369H178.518H185.416H187.786L188.103 43.5665L188.576 40.0504L191.497 44.9188L193.817 48.7844L196.136 44.9188L199.058 40.0504L199.528 43.5665L199.847 45.9369H202.215H209.116H212.11L211.812 42.9283L208.514 9.63957Z" fill="#D7C831"/>
<path d="M63.4951 3.21826H60.7841V5.95333V13.6054V22.0264H54.0066V5.95333V3.21826H51.2955H42.56H39.849V5.95333V13.6054V22.0264H38.6441H35.9331V24.7614V32.3588V35.0939H38.6441H39.849V43.2991V46.0342H42.56H51.2955H54.0066V43.2991V35.0939H60.7841V43.2991V46.0342H63.4951H72.2306H74.9416V43.2991V32.3588V24.7614V5.95333V3.21826H72.2306H63.4951Z" fill="#D7C831"/>
<path d="M85.1832 3.21826H82.4722V5.95333V13.6054V43.2991V46.0342H85.1832H93.9187H96.6297V43.2991V5.95333V3.21826H93.9187H85.1832Z" fill="#D7C831"/>
<path d="M230.084 3.21826H221.349H218.638V5.95333V13.6054V43.2991V46.0342H221.349H230.084H232.795V43.2991V5.95333V3.21826H230.084Z" fill="#D7C831"/>
<path d="M24.1462 17.8174L28.4898 15.2191L29.2579 14.7602L31.5623 13.3836L30.2249 11.0436L29.779 10.2626C28.3392 7.74023 26.5439 5.79226 24.4444 4.46727L24.2245 4.32748L23.5648 3.91115H23.4744C21.5496 2.91133 19.4019 2.40686 17.0855 2.40686H17.0614C15.1335 2.40686 13.3202 2.70772 11.6725 3.30335C9.98259 3.90811 8.42827 4.83499 7.06372 6.05665L7.04264 6.07488L6.98842 6.12351C6.28355 6.76169 5.66002 7.44849 5.12685 8.18088H4.85876L4.13281 9.76722L3.88882 10.299C3.15986 11.9066 2.79538 13.6601 2.79538 15.52V15.5382C2.79538 16.7052 2.949 17.8326 3.25023 18.8993V18.9418L3.39481 19.3734L3.44602 19.5223V19.5314L3.45205 19.5405C3.77737 20.4887 4.23523 21.4034 4.81057 22.2604V22.2665L4.8196 22.2725C5.38289 23.0991 6.05763 23.8771 6.82274 24.5821C8.02764 25.6883 9.50966 26.6669 11.2387 27.5026L10.4525 27.6758L9.47653 27.8916L4.05148 29.095L3.34059 29.253L1.21094 29.7241V32.915L1.23805 33.1064L1.24708 33.1763V33.1915C1.5453 35.2185 2.0875 37.0662 2.86165 38.686C3.65688 40.3574 4.71417 41.8222 6.00341 43.0377L6.00944 43.0438L6.06366 43.0955L6.08173 43.1137L6.08776 43.1198L6.09378 43.1259C7.44025 44.3627 8.99758 45.3048 10.7146 45.9278L10.8622 45.9825L11.305 46.1436H11.3532C12.8352 46.6024 14.4407 46.8334 16.1336 46.8334H16.1547C17.1818 46.8334 18.1849 46.7453 19.1338 46.5721C20.0917 46.3988 21.0435 46.1284 21.9472 45.7698C22.8479 45.4112 23.7184 44.9584 24.5377 44.4205C25.348 43.8856 26.1162 43.2566 26.8331 42.5515C28.0832 41.3177 29.0802 39.9107 29.7971 38.3669L29.8122 38.3365L29.8242 38.3061L30.0742 37.7348L30.0923 37.6922L30.1104 37.6497C30.8183 35.8688 31.1797 33.9026 31.1827 31.8088V31.7571C31.1797 30.3805 31.011 29.0737 30.6827 27.8551V27.8186L30.5562 27.4114L30.511 27.2716V27.2625L30.505 27.2534C30.0411 25.8038 29.3302 24.4667 28.3994 23.2845C27.5018 22.1449 26.3601 21.1025 25.0107 20.1848C24.2666 19.6803 23.4503 19.2032 22.5647 18.7565L23.36 18.2793L24.1492 17.8083L24.1462 17.8174ZM18.209 30.9883L18.2331 31.0187L18.2422 31.0278C18.3355 31.1463 18.4018 31.2648 18.441 31.3833L18.4681 31.4684C18.5193 31.6599 18.5494 31.8969 18.5494 32.1583C18.5494 32.5351 18.5012 32.8694 18.4048 33.149L18.3867 33.1915V33.2037L18.3777 33.2158C18.2843 33.459 18.1427 33.6747 17.947 33.8753L17.8506 33.9725C17.6939 34.1184 17.5222 34.2339 17.3415 34.3129L17.2963 34.3311H17.2903L17.2843 34.3372C17.0373 34.4375 16.7149 34.4922 16.3535 34.4922C15.7149 34.4922 15.3323 34.3737 15.1275 34.2734C14.998 34.2126 14.8895 34.1397 14.7901 34.0576C14.7299 34.006 14.6696 33.9482 14.6094 33.8783L14.522 33.7021L14.3774 33.5501C14.3383 33.462 14.278 33.3161 14.2148 33.0973C14.0581 32.5685 13.9286 31.8605 13.8352 31.0491L13.7208 30.0462L13.5461 28.5206L15.6697 29.4111L15.6848 29.4171C16.3746 29.715 16.962 30.0249 17.4319 30.3349C17.7753 30.5628 18.0373 30.7847 18.212 30.9944L18.209 30.9883ZM17.0794 16.4256C16.6427 16.2463 16.2691 16.0548 15.9649 15.8603C15.6848 15.681 15.5462 15.5564 15.4799 15.4805L15.4739 15.4713V15.4501L15.4799 15.4379V15.4258H15.4829L15.501 15.3832L15.507 15.3711C15.5251 15.3437 15.5673 15.292 15.6426 15.2282L15.6727 15.2039L15.748 15.1401C15.8655 15.0489 15.995 14.9821 16.1426 14.9304L16.233 14.9C16.4499 14.8392 16.7059 14.8058 16.9891 14.8058H17.0222C17.3355 14.8058 17.5855 14.8301 17.7903 14.8818C17.8988 14.9091 17.965 14.9365 18.0042 14.9547L18.0162 14.9638L18.1187 15.0277L18.1247 15.0337L18.1337 15.0398C18.1729 15.0732 18.2422 15.1431 18.3536 15.2769C18.5976 15.5656 18.8717 15.9789 19.1669 16.4985L19.6248 17.3008L19.7573 17.5318L17.0794 16.4286V16.4256Z" fill="#D7C831"/>
<path d="M159.76 2.88092H157.049V29.5052C157.025 29.7241 156.895 30.5962 156.389 31.3985C155.962 32.0701 155.145 32.9666 152.983 32.9666C150.82 32.9666 150.003 32.0732 149.576 31.3985C149.07 30.5993 148.94 29.7241 148.916 29.5052V2.88092H135.963V29.7484C135.972 29.8851 136.135 33.1307 137.71 36.6741C139.882 41.5578 143.654 44.7365 148.621 45.867C149.967 46.18 151.44 46.338 152.983 46.338C154.525 46.338 155.998 46.18 157.353 45.864C162.311 44.7365 166.083 41.5578 168.255 36.6741C169.83 33.1307 169.993 29.8851 169.999 29.7484V2.88092H159.76Z" fill="#D7C831"/>
<path d="M117.589 2.88092H110.359H107.648V5.61598V13.2134V21.7225H106.443H103.732V24.4575V32.0549V34.79H106.443H107.648V42.9952V45.7302H110.359H117.589H120.3V42.9952V34.79H125.722H128.433V32.0549V24.4575V21.7225H125.722H120.3V15.9484H127.228H129.939V13.2134V5.61598V2.88092H127.228H117.589Z" fill="#D7C831"/>
<path d="M208.212 9.33568L207.378 0.911682L203.17 8.23557L193.516 25.0349L183.861 8.23557L179.653 0.911682L178.819 9.33568L175.517 42.6244L175.219 45.633H178.216H185.114H187.485L187.801 43.2626L188.274 39.7465L191.196 44.615L193.516 48.4805L195.835 44.615L198.757 39.7465L199.227 43.2626L199.546 45.633H201.914H208.815H211.809L211.511 42.6244L208.212 9.33568Z" fill="#D7C831"/>
<path d="M63.1938 2.91437H60.4828V5.64943V13.3015V21.7225H53.7053V5.64943V2.91437H50.9943H42.2588H39.5477V5.64943V13.3015V21.7225H38.3429H35.6318V24.4576V32.055V34.79H38.3429H39.5477V42.9952V45.7303H42.2588H50.9943H53.7053V42.9952V34.79H60.4828V42.9952V45.7303H63.1938H71.9294H74.6404V42.9952V32.055V24.4576V5.64943V2.91437H71.9294H63.1938Z" fill="#D7C831"/>
<path d="M84.8819 2.91437H82.1709V5.64943V13.3015V42.9952V45.7303H84.8819H93.6174H96.3284V42.9952V5.64943V2.91437H93.6174H84.8819Z" fill="#D7C831"/>
<path d="M229.783 2.91437H221.047H218.336V5.64943V13.3015V42.9952V45.7303H221.047H229.783H232.494V42.9952V5.64943V2.91437H229.783Z" fill="#D7C831"/>
<path d="M23.8449 17.5135L28.1885 14.9152L28.9567 14.4563L31.261 13.0797L29.9236 10.7397L29.4778 9.95868C28.0379 7.43634 26.2426 5.48837 24.1431 4.16338L23.9232 4.02359L23.2635 3.60725H23.1731C21.2483 2.60743 19.1006 2.10297 16.7842 2.10297H16.7601C14.8323 2.10297 13.0189 2.40382 11.3712 2.99946C9.68132 3.60421 8.127 4.5311 6.76245 5.75276L6.74137 5.77099L6.68715 5.81961C5.98228 6.4578 5.35875 7.1446 4.82558 7.87699H4.55749L3.83154 9.46333L3.58755 9.99514C2.85859 11.6028 2.49411 13.3562 2.49411 15.2161V15.2343C2.49411 16.4013 2.64773 17.5287 2.94896 18.5954V18.6379L3.09354 19.0695L3.14475 19.2184V19.2275L3.15078 19.2366C3.4761 20.1848 3.93396 21.0995 4.5093 21.9565V21.9626L4.51833 21.9686C5.08162 22.7952 5.75637 23.5732 6.52147 24.2783C7.72637 25.3844 9.2084 26.363 10.9374 27.1987L10.1512 27.3719L9.17526 27.5877L3.75021 28.7911L3.03932 28.9491L0.909668 29.4202V32.6111L0.936778 32.8025L0.945815 32.8724V32.8876C1.24403 34.9146 1.78623 36.7623 2.56038 38.3821C3.35561 40.0535 4.41291 41.5183 5.70215 42.7339L5.70817 42.7399L5.76239 42.7916L5.78046 42.8098L5.78649 42.8159L5.79251 42.822C7.13898 44.0588 8.69631 45.0009 10.4133 45.6239L10.5609 45.6786L11.0037 45.8397H11.0519C12.5339 46.2986 14.1394 46.5295 15.8323 46.5295H15.8534C16.8806 46.5295 17.8837 46.4414 18.8325 46.2682C19.7904 46.0949 20.7423 45.8245 21.6459 45.4659C22.5466 45.1073 23.4171 44.6545 24.2365 44.1166C25.0468 43.5817 25.8149 42.9527 26.5318 42.2476C27.7819 41.0138 28.7789 39.6068 29.4958 38.063L29.5109 38.0326L29.523 38.0022L29.773 37.4309L29.791 37.3883L29.8091 37.3458C30.517 35.5649 30.8785 33.5987 30.8815 31.5049V31.4532C30.8785 30.0766 30.7098 28.7698 30.3814 27.5512V27.5147L30.2549 27.1075L30.2097 26.9677V26.9586L30.2037 26.9495C29.7398 25.4999 29.0289 24.1628 28.0982 22.9806C27.2005 21.841 26.0589 20.7986 24.7094 19.8809C23.9654 19.3764 23.1491 18.8993 22.2635 18.4526L23.0587 17.9755L23.8479 17.5044L23.8449 17.5135ZM17.9077 30.6844L17.9318 30.7148L17.9409 30.7239C18.0343 30.8424 18.1005 30.9609 18.1397 31.0794L18.1668 31.1645C18.218 31.356 18.2481 31.593 18.2481 31.8544C18.2481 32.2312 18.1999 32.5655 18.1035 32.8451L18.0855 32.8876V32.8998L18.0764 32.9119C17.9831 33.1551 17.8415 33.3708 17.6457 33.5714L17.5493 33.6686C17.3927 33.8145 17.221 33.93 17.0402 34.009L16.995 34.0272H16.989L16.983 34.0333C16.736 34.1336 16.4137 34.1883 16.0522 34.1883C15.4136 34.1883 15.0311 34.0698 14.8262 33.9695C14.6967 33.9087 14.5883 33.8358 14.4889 33.7537C14.4286 33.7021 14.3684 33.6443 14.3081 33.5744L14.2208 33.3982L14.0762 33.2462C14.037 33.1581 13.9768 33.0122 13.9135 32.7934C13.7569 32.2646 13.6274 31.5566 13.534 30.7452L13.4195 29.7423L13.2448 28.2167L15.3684 29.1072L15.3835 29.1132C16.0733 29.4111 16.6607 29.721 17.1306 30.031C17.474 30.2589 17.7361 30.4808 17.9108 30.6905L17.9077 30.6844ZM16.7782 16.1217C16.3414 15.9424 15.9679 15.7509 15.6636 15.5564C15.3835 15.3771 15.2449 15.2525 15.1787 15.1766L15.1726 15.1675V15.1462L15.1787 15.134V15.1219H15.1817L15.1997 15.0793L15.2058 15.0672C15.2238 15.0398 15.266 14.9882 15.3413 14.9243L15.3714 14.9L15.4467 14.8362C15.5642 14.745 15.6938 14.6782 15.8414 14.6265L15.9317 14.5961C16.1486 14.5353 16.4046 14.5019 16.6878 14.5019H16.7209C17.0342 14.5019 17.2842 14.5262 17.489 14.5779C17.5975 14.6052 17.6638 14.6326 17.7029 14.6508L17.715 14.6599L17.8174 14.7238L17.8234 14.7298L17.8324 14.7359C17.8716 14.7693 17.9409 14.8392 18.0523 14.973C18.2963 15.2617 18.5704 15.675 18.8656 16.1946L19.3235 16.9969L19.456 17.2279L16.7782 16.1247V16.1217Z" fill="#D7C831"/>
<path d="M159.459 2.57703H156.748V29.2014C156.724 29.4202 156.595 30.2923 156.089 31.0946C155.661 31.7662 154.845 32.6627 152.682 32.6627C150.519 32.6627 149.703 31.7693 149.275 31.0946C148.769 30.2954 148.639 29.4202 148.615 29.2014V2.57703H135.663V29.4445C135.672 29.5812 135.834 32.8268 137.41 36.3703C139.582 41.2539 143.353 44.4326 148.32 45.5631C149.667 45.8761 151.139 46.0341 152.682 46.0341C154.224 46.0341 155.697 45.8761 157.053 45.5601C162.011 44.4326 165.782 41.2539 167.954 36.3703C169.529 32.8268 169.692 29.5812 169.698 29.4445V2.57703H159.459Z" fill="#D7C831"/>
<path d="M117.288 2.57703H110.059H107.348V5.31209V12.9095V21.4186H106.143H103.432V24.1536V31.751V34.4861H106.143H107.348V42.6913V45.4264H110.059H117.288H119.999V42.6913V34.4861H125.421H128.132V31.751V24.1536V21.4186H125.421H119.999V15.6446H126.927H129.638V12.9095V5.31209V2.57703H126.927H117.288Z" fill="#D7C831"/>
<path d="M207.912 9.03178L207.077 0.607788L202.869 7.93168L193.215 24.731L183.561 7.93168L179.352 0.607788L178.518 9.03178L175.217 42.3205L174.918 45.3291H177.916H184.814H187.184L187.501 42.9587L187.974 39.4426L190.895 44.3111L193.215 48.1766L195.534 44.3111L198.456 39.4426L198.926 42.9587L199.245 45.3291H201.613H208.514H211.508L211.21 42.3205L207.912 9.03178Z" fill="#D7C831"/>
<path d="M62.8931 2.61047H60.182V5.34554V12.9976V21.4186H53.4045V5.34554V2.61047H50.6935H41.958H39.247V5.34554V12.9976V21.4186H38.0421H35.3311V24.1537V31.7511V34.4861H38.0421H39.247V42.6913V45.4264H41.958H50.6935H53.4045V42.6913V34.4861H60.182V42.6913V45.4264H62.8931H71.6286H74.3396V42.6913V31.7511V24.1537V5.34554V2.61047H71.6286H62.8931Z" fill="#D7C831"/>
<path d="M84.5811 2.61047H81.8701V5.34554V12.9976V42.6913V45.4264H84.5811H93.3166H96.0277V42.6913V5.34554V2.61047H93.3166H84.5811Z" fill="#D7C831"/>
<path d="M229.482 2.61047H220.747H218.036V5.34554V12.9976V42.6913V45.4264H220.747H229.482H232.193V42.6913V5.34554V2.61047H229.482Z" fill="#D7C831"/>
<path d="M23.5441 17.2096L27.8878 14.6113L28.6559 14.1524L30.9602 12.7758L29.6228 10.4358L29.177 9.65478C27.7371 7.13245 25.9418 5.18447 23.8423 3.85949L23.6224 3.71969L22.9627 3.30336H22.8724C20.9475 2.30354 18.7998 1.79907 16.4834 1.79907H16.4593C14.5315 1.79907 12.7181 2.09993 11.0704 2.69557C9.38054 3.30032 7.82622 4.2272 6.46167 5.44886L6.44059 5.4671L6.38637 5.51572C5.6815 6.1539 5.05797 6.84071 4.5248 7.5731H4.25671L3.53076 9.15943L3.28677 9.69125C2.55781 11.2989 2.19333 13.0523 2.19333 14.9122V14.9304C2.19333 16.0974 2.34695 17.2248 2.64817 18.2915V18.3341L2.79276 18.7656L2.84397 18.9145V18.9236L2.84999 18.9327C3.17532 19.8809 3.63318 20.7956 4.20852 21.6526V21.6587L4.21755 21.6648C4.78084 22.4913 5.45558 23.2693 6.22069 23.9744C7.42559 25.0805 8.90761 26.0591 10.6366 26.8948L9.85045 27.068L8.87448 27.2838L3.44943 28.4872L2.73854 28.6452L0.608887 29.1163V32.3072L0.635997 32.4986L0.645034 32.5685V32.5837C0.943246 34.6107 1.48545 36.4584 2.2596 38.0782C3.05483 39.7496 4.11212 41.2144 5.40136 42.43L5.40739 42.436L5.46161 42.4877L5.47968 42.5059L5.48571 42.512L5.49173 42.5181C6.8382 43.7549 8.39553 44.697 10.1125 45.32L10.2601 45.3747L10.7029 45.5358H10.7511C12.2331 45.9947 13.8387 46.2256 15.5315 46.2256H15.5526C16.5798 46.2256 17.5829 46.1375 18.5317 45.9643C19.4896 45.791 20.4415 45.5206 21.3452 45.162C22.2458 44.8034 23.1164 44.3506 23.9357 43.8127C24.746 43.2778 25.5141 42.6488 26.231 41.9437C27.4811 40.7099 28.4781 39.3029 29.1951 37.7591L29.2101 37.7287L29.2222 37.6983L29.4722 37.127L29.4903 37.0844L29.5083 37.0419C30.2162 35.2611 30.5777 33.2948 30.5807 31.201V31.1493C30.5777 29.7727 30.409 28.4659 30.0807 27.2473V27.2109L29.9542 26.8036L29.909 26.6638V26.6547L29.9029 26.6456C29.4391 25.196 28.7282 23.8589 27.7974 22.6767C26.8997 21.5371 25.7581 20.4948 24.4086 19.577C23.6646 19.0725 22.8483 18.5954 21.9627 18.1487L22.7579 17.6716L23.5471 17.2005L23.5441 17.2096ZM17.607 30.3805L17.6311 30.4109L17.6401 30.42C17.7335 30.5385 17.7998 30.657 17.8389 30.7756L17.866 30.8606C17.9172 31.0521 17.9474 31.2891 17.9474 31.5505C17.9474 31.9273 17.8992 32.2616 17.8028 32.5412L17.7847 32.5837V32.5959L17.7757 32.608C17.6823 32.8512 17.5407 33.0669 17.3449 33.2675L17.2485 33.3647C17.0919 33.5106 16.9202 33.6261 16.7394 33.7051L16.6943 33.7233H16.6882L16.6822 33.7294C16.4352 33.8297 16.1129 33.8844 15.7514 33.8844C15.1128 33.8844 14.7303 33.7659 14.5254 33.6656C14.3959 33.6048 14.2875 33.5319 14.1881 33.4498C14.1278 33.3982 14.0676 33.3404 14.0073 33.2705L13.92 33.0943L13.7754 32.9423C13.7362 32.8542 13.676 32.7083 13.6127 32.4895C13.4561 31.9607 13.3266 31.2527 13.2332 30.4413L13.1187 29.4384L12.944 27.9129L15.0676 28.8033L15.0827 28.8093C15.7725 29.1072 16.3599 29.4171 16.8298 29.7271C17.1732 29.955 17.4353 30.1769 17.61 30.3866L17.607 30.3805ZM16.4774 15.8178C16.0406 15.6385 15.6671 15.447 15.3628 15.2525C15.0827 15.0732 14.9441 14.9486 14.8779 14.8727L14.8719 14.8636V14.8423L14.8779 14.8301V14.818H14.8809L14.899 14.7754L14.905 14.7633C14.9231 14.7359 14.9652 14.6843 15.0405 14.6204L15.0707 14.5961L15.146 14.5323C15.2634 14.4411 15.393 14.3743 15.5406 14.3226L15.6309 14.2922C15.8478 14.2315 16.1039 14.198 16.387 14.198H16.4201C16.7334 14.198 16.9834 14.2223 17.1883 14.274C17.2967 14.3014 17.363 14.3287 17.4021 14.3469L17.4142 14.3561L17.5166 14.4199L17.5226 14.426L17.5317 14.432C17.5708 14.4655 17.6401 14.5354 17.7516 14.6691C17.9955 14.9578 18.2697 15.3711 18.5649 15.8907L19.0227 16.693L19.1553 16.924L16.4774 15.8208V15.8178Z" fill="#D7C831"/>
<path d="M159.158 2.27313H156.447V28.8975C156.423 29.1163 156.293 29.9884 155.787 30.7907C155.36 31.4623 154.543 32.3588 152.38 32.3588C150.218 32.3588 149.401 31.4654 148.974 30.7907C148.468 29.9915 148.338 29.1163 148.314 28.8975V2.27313H135.361V29.1406C135.37 29.2773 135.533 32.5229 137.108 36.0664C139.28 40.95 143.052 44.1287 148.019 45.2592C149.365 45.5722 150.838 45.7303 152.38 45.7303C153.923 45.7303 155.396 45.5722 156.751 45.2562C161.709 44.1287 165.481 40.95 167.653 36.0664C169.228 32.5229 169.391 29.2773 169.397 29.1406V2.27313H159.158Z" fill="#D7C831"/>
<path d="M116.987 2.27313H109.757H107.046V5.0082V12.6056V21.1147H105.841H103.13V23.8497V31.4471V34.1822H105.841H107.046V42.3874V45.1225H109.757H116.987H119.698V42.3874V34.1822H125.12H127.831V31.4471V23.8497V21.1147H125.12H119.698V15.3407H126.626H129.337V12.6056V5.0082V2.27313H126.626H116.987Z" fill="#D7C831"/>
<path d="M207.61 8.72789L206.776 0.303894L202.568 7.62779L192.914 24.4272L183.259 7.62779L179.051 0.303894L178.217 8.72789L174.915 42.0166L174.617 45.0252H177.614H184.512H186.883L187.199 42.6548L187.672 39.1388L190.594 44.0072L192.914 47.8727L195.233 44.0072L198.155 39.1388L198.625 42.6548L198.944 45.0252H201.312H208.213H211.207L210.909 42.0166L207.61 8.72789Z" fill="#D7C831"/>
<path d="M62.5918 2.30658H59.8808V5.04164V12.6937V21.1147H53.1032V5.04164V2.30658H50.3922H41.6567H38.9457V5.04164V12.6937V21.1147H37.7408H35.0298V23.8498V31.4472V34.1822H37.7408H38.9457V42.3874V45.1225H41.6567H50.3922H53.1032V42.3874V34.1822H59.8808V42.3874V45.1225H62.5918H71.3273H74.0383V42.3874V31.4472V23.8498V5.04164V2.30658H71.3273H62.5918Z" fill="#D7C831"/>
<path d="M84.2799 2.30658H81.5688V5.04164V12.6937V42.3874V45.1225H84.2799H93.0154H95.7264V42.3874V5.04164V2.30658H93.0154H84.2799Z" fill="#D7C831"/>
<path d="M229.181 2.30658H220.445H217.734V5.04164V12.6937V42.3874V45.1225H220.445H229.181H231.892V42.3874V5.04164V2.30658H229.181Z" fill="#D7C831"/>
<path d="M23.2428 16.9057L27.5865 14.3074L28.3546 13.8485L30.659 12.4719L29.3215 10.1319L28.8757 9.35089C27.4359 6.82855 25.6406 4.88058 23.541 3.55559L23.3211 3.4158L22.6615 2.99946H22.5711C20.6463 1.99965 18.4985 1.49518 16.1821 1.49518H16.158C14.2302 1.49518 12.4168 1.79604 10.7691 2.39167C9.07927 2.99642 7.52495 3.92331 6.1604 5.14497L6.13932 5.1632L6.0851 5.21183C5.38023 5.85001 4.7567 6.53681 4.22353 7.2692H3.95544L3.22949 8.85554L2.9855 9.38736C2.25654 10.995 1.89206 12.7484 1.89206 14.6083V14.6265C1.89206 15.7935 2.04568 16.9209 2.3469 17.9876V18.0302L2.49149 18.4617L2.5427 18.6106V18.6197L2.54873 18.6288C2.87405 19.577 3.33191 20.4917 3.90725 21.3487V21.3548L3.91628 21.3609C4.47957 22.1875 5.15431 22.9654 5.91942 23.6705C7.12432 24.7766 8.60634 25.7552 10.3354 26.5909L9.54918 26.7641L8.57321 26.9799L3.14816 28.1833L2.43727 28.3413L0.307617 28.8124V32.0033L0.334727 32.1947L0.343764 32.2646V32.2798C0.641976 34.3068 1.18418 36.1545 1.95833 37.7743C2.75356 39.4457 3.81085 40.9105 5.10009 42.1261L5.10612 42.1321L5.16034 42.1838L5.17841 42.202L5.18444 42.2081L5.19046 42.2142C6.53693 43.4511 8.09426 44.3931 9.81124 45.0161L9.95884 45.0708L10.4016 45.2319H10.4498C11.9319 45.6908 13.5374 45.9217 15.2303 45.9217H15.2514C16.2785 45.9217 17.2816 45.8336 18.2305 45.6604C19.1884 45.4872 20.1402 45.2167 21.0439 44.8581C21.9446 44.4995 22.8151 44.0467 23.6344 43.5088C24.4447 42.9739 25.2128 42.3449 25.9297 41.6398C27.1798 40.406 28.1769 38.999 28.8938 37.4552L28.9089 37.4248L28.9209 37.3944L29.1709 36.8231L29.189 36.7805L29.2071 36.738C29.9149 34.9572 30.2764 32.991 30.2794 30.8971V30.8454C30.2764 29.4688 30.1077 28.1621 29.7794 26.9434V26.907L29.6529 26.4997L29.6077 26.3599V26.3508L29.6017 26.3417C29.1378 24.8921 28.4269 23.555 27.4961 22.3728C26.5985 21.2332 25.4568 20.1909 24.1073 19.2731C23.3633 18.7686 22.547 18.2915 21.6614 17.8448L22.4566 17.3677L23.2458 16.8966L23.2428 16.9057ZM17.3057 30.0766L17.3298 30.107L17.3388 30.1161C17.4322 30.2346 17.4985 30.3531 17.5376 30.4717L17.5648 30.5567C17.616 30.7482 17.6461 30.9852 17.6461 31.2466C17.6461 31.6234 17.5979 31.9577 17.5015 32.2373L17.4834 32.2798V32.292L17.4744 32.3042C17.381 32.5473 17.2394 32.763 17.0436 32.9636L16.9472 33.0609C16.7906 33.2067 16.6189 33.3222 16.4382 33.4012L16.393 33.4194H16.387L16.3809 33.4255C16.1339 33.5258 15.8116 33.5805 15.4502 33.5805C14.8116 33.5805 14.429 33.462 14.2242 33.3617C14.0946 33.3009 13.9862 33.228 13.8868 33.1459C13.8266 33.0943 13.7663 33.0365 13.7061 32.9666L13.6187 32.7904L13.4741 32.6384C13.435 32.5503 13.3747 32.4044 13.3115 32.1856C13.1548 31.6569 13.0253 30.9488 12.9319 30.1374L12.8175 29.1345L12.6427 27.609L14.7664 28.4994L14.7814 28.5055C15.4712 28.8033 16.0586 29.1132 16.5285 29.4232C16.8719 29.6511 17.134 29.873 17.3087 30.0827L17.3057 30.0766ZM16.1761 15.5139C15.7393 15.3346 15.3658 15.1431 15.0616 14.9487C14.7814 14.7694 14.6429 14.6448 14.5766 14.5688L14.5706 14.5597V14.5384L14.5766 14.5262V14.5141H14.5796L14.5977 14.4715L14.6037 14.4594C14.6218 14.432 14.664 14.3804 14.7393 14.3165L14.7694 14.2922L14.8447 14.2284C14.9622 14.1372 15.0917 14.0704 15.2393 14.0187L15.3297 13.9883C15.5465 13.9276 15.8026 13.8941 16.0857 13.8941H16.1189C16.4321 13.8941 16.6822 13.9184 16.887 13.9701C16.9954 13.9975 17.0617 14.0248 17.1009 14.043L17.1129 14.0522L17.2153 14.116L17.2214 14.1221L17.2304 14.1281C17.2696 14.1616 17.3388 14.2315 17.4503 14.3652C17.6943 14.6539 17.9684 15.0672 18.2636 15.5868L18.7215 16.3891L18.854 16.6201L16.1761 15.5169V15.5139Z" fill="#D7C831"/>
<path d="M158.857 1.96924H156.146V28.5936C156.122 28.8124 155.992 29.6845 155.486 30.4868C155.058 31.1584 154.242 32.0549 152.079 32.0549C149.916 32.0549 149.1 31.1615 148.672 30.4868C148.166 29.6876 148.037 28.8124 148.013 28.5936V1.96924H135.06V28.8367C135.069 28.9734 135.232 32.219 136.807 35.7625C138.979 40.6461 142.75 43.8248 147.718 44.9553C149.064 45.2683 150.537 45.4264 152.079 45.4264C153.621 45.4264 155.094 45.2683 156.45 44.9523C161.408 43.8248 165.179 40.6461 167.351 35.7625C168.927 32.219 169.089 28.9734 169.095 28.8367V1.96924H158.857Z" fill="#D7C831"/>
<path d="M116.685 1.96924H109.456H106.745V4.7043V12.3017V20.8108H105.54H102.829V23.5459V31.1432V33.8783H105.54H106.745V42.0835V44.8186H109.456H116.685H119.396V42.0835V33.8783H124.818H127.529V31.1432V23.5459V20.8108H124.818H119.396V15.0368H126.325H129.036V12.3017V4.7043V1.96924H126.325H116.685Z" fill="#D7C831"/>
<path d="M207.309 8.424L206.474 0L202.266 7.32389L192.612 24.1233L182.958 7.32389L178.749 0L177.915 8.424L174.614 41.7128L174.315 44.7213H177.313H184.211H186.581L186.898 42.3509L187.37 38.8349L190.292 43.7033L192.612 47.5688L194.931 43.7033L197.853 38.8349L198.323 42.3509L198.642 44.7213H201.01H207.911H210.905L210.607 41.7128L207.309 8.424Z" fill="#D7C831"/>
<path d="M62.2905 2.00269H59.5795V4.73775V12.3898V20.8108H52.802V4.73775V2.00269H50.0909H41.3554H38.6444V4.73775V12.3898V20.8108H37.4395H34.7285V23.5459V31.1433V33.8783H37.4395H38.6444V42.0835V44.8186H41.3554H50.0909H52.802V42.0835V33.8783H59.5795V42.0835V44.8186H62.2905H71.026H73.737V42.0835V31.1433V23.5459V4.73775V2.00269H71.026H62.2905Z" fill="#D7C831"/>
<path d="M83.9786 2.00269H81.2676V4.73775V12.3898V42.0835V44.8186H83.9786H92.7141H95.4251V42.0835V4.73775V2.00269H92.7141H83.9786Z" fill="#D7C831"/>
<path d="M228.879 2.00269H220.144H217.433V4.73775V12.3898V42.0835V44.8186H220.144H228.879H231.59V42.0835V4.73775V2.00269H228.879Z" fill="#D7C831"/>
<path d="M22.9416 16.6018L27.2852 14.0035L28.0533 13.5447L30.3577 12.168L29.0203 9.82801L28.5745 9.04699C27.1346 6.52466 25.3393 4.57668 23.2398 3.2517L23.0199 3.11191L22.3602 2.69557H22.2698C20.345 1.69575 18.1973 1.19128 15.8809 1.19128H15.8568C13.9289 1.19128 12.1156 1.49214 10.4679 2.08778C8.778 2.69253 7.22368 3.61941 5.85913 4.84107L5.83805 4.85931L5.78383 4.90793C5.07896 5.54611 4.45543 6.23292 3.92226 6.96531H3.65417L2.92822 8.55164L2.68423 9.08346C1.95527 10.6911 1.59079 12.4446 1.59079 14.3044V14.3226C1.59079 15.4896 1.74441 16.617 2.04564 17.6837V17.7263L2.19022 18.1578L2.24143 18.3067V18.3158L2.24746 18.3249C2.57278 19.2731 3.03064 20.1878 3.60598 21.0448V21.0509L3.61501 21.057C4.1783 21.8836 4.85304 22.6615 5.61815 23.3666C6.82305 24.4728 8.30507 25.4513 10.0341 26.287L9.24791 26.4602L8.27194 26.676L2.84689 27.8794L2.136 28.0375L0.00634766 28.5085V31.6994L0.0334578 31.8909L0.0424946 31.9607V31.9759C0.340707 34.0029 0.88291 35.8506 1.65706 37.4704C2.45229 39.1418 3.50958 40.6066 4.79882 41.8222L4.80485 41.8283L4.85907 41.8799L4.87714 41.8981L4.88317 41.9042L4.88919 41.9103C6.23566 43.1472 7.79299 44.0892 9.50997 44.7122L9.65757 44.7669L10.1004 44.928H10.1486C11.6306 45.3869 13.2361 45.6178 14.929 45.6178H14.9501C15.9773 45.6178 16.9803 45.5297 17.9292 45.3565C18.8871 45.1833 19.839 44.9128 20.7426 44.5542C21.6433 44.1956 22.5138 43.7428 23.3332 43.2049C24.1434 42.67 24.9116 42.041 25.6285 41.3359C26.8786 40.1021 27.8756 38.6951 28.5925 37.1513L28.6076 37.1209L28.6196 37.0905L28.8696 36.5192L28.8877 36.4766L28.9058 36.4341C29.6137 34.6533 29.9751 32.6871 29.9782 30.5932V30.5416C29.9751 29.1649 29.8065 27.8582 29.4781 26.6395V26.6031L29.3516 26.1958L29.3064 26.0561V26.0469L29.3004 26.0378C28.8365 24.5882 28.1256 23.2511 27.1948 22.0689C26.2972 20.9293 25.1556 19.887 23.8061 18.9692C23.062 18.4647 22.2457 17.9876 21.3601 17.5409L22.1554 17.0638L22.9446 16.5927L22.9416 16.6018ZM17.0044 29.7727L17.0285 29.8031L17.0376 29.8122C17.1309 29.9307 17.1972 30.0492 17.2364 30.1678L17.2635 30.2529C17.3147 30.4443 17.3448 30.6813 17.3448 30.9427C17.3448 31.3195 17.2966 31.6538 17.2002 31.9334L17.1822 31.9759V31.9881L17.1731 32.0003C17.0797 32.2434 16.9382 32.4591 16.7424 32.6597L16.646 32.757C16.4893 32.9028 16.3176 33.0183 16.1369 33.0973L16.0917 33.1156H16.0857L16.0797 33.1216C15.8327 33.2219 15.5104 33.2766 15.1489 33.2766C14.5103 33.2766 14.1277 33.1581 13.9229 33.0578C13.7934 32.997 13.6849 32.9241 13.5855 32.842C13.5253 32.7904 13.465 32.7326 13.4048 32.6628L13.3174 32.4865L13.1729 32.3345C13.1337 32.2464 13.0735 32.1005 13.0102 31.8817C12.8536 31.353 12.724 30.6449 12.6307 29.8335L12.5162 28.8306L12.3415 27.3051L14.4651 28.1955L14.4802 28.2016C15.17 28.4994 15.7574 28.8093 16.2273 29.1193C16.5707 29.3472 16.8327 29.5691 17.0074 29.7788L17.0044 29.7727ZM15.8748 15.21C15.4381 15.0307 15.0645 14.8393 14.7603 14.6448C14.4802 14.4655 14.3416 14.3409 14.2753 14.2649L14.2693 14.2558V14.2345L14.2753 14.2223V14.2102H14.2784L14.2964 14.1676L14.3024 14.1555C14.3205 14.1281 14.3627 14.0765 14.438 14.0127L14.4681 13.9883L14.5434 13.9245C14.6609 13.8334 14.7904 13.7665 14.938 13.7148L15.0284 13.6844C15.2453 13.6237 15.5013 13.5902 15.7845 13.5902H15.8176C16.1309 13.5902 16.3809 13.6146 16.5857 13.6662C16.6942 13.6936 16.7604 13.7209 16.7996 13.7391L16.8116 13.7483L16.9141 13.8121L16.9201 13.8182L16.9291 13.8242C16.9683 13.8577 17.0376 13.9276 17.149 14.0613C17.393 14.35 17.6671 14.7633 17.9623 15.2829L18.4202 16.0852L18.5527 16.3162L15.8748 15.213V15.21Z" fill="#D7C831"/>
<path d="M152.079 44.0588C150.636 44.0588 149.269 43.9099 148.01 43.6212C137.102 41.1384 136.422 28.9005 136.416 28.7759V3.33679H146.657V28.6696C146.699 29.2591 147.169 33.4225 152.079 33.4225C156.989 33.4225 157.456 29.2865 157.501 28.6665V3.33679H167.743V28.7759C167.737 28.9005 167.056 41.1384 156.143 43.6212C154.89 43.9099 153.519 44.0588 152.079 44.0588Z" fill="url(#paint0_linear_1757_1982)"/>
<path d="M166.387 4.7043V28.7121C166.387 28.7121 165.875 40.0049 155.845 42.2871C154.715 42.5485 153.465 42.6913 152.079 42.6913C150.694 42.6913 149.444 42.5485 148.314 42.2871C138.283 40.0049 137.771 28.7121 137.771 28.7121V4.7043H145.302V28.7121C145.302 28.7121 145.603 34.79 152.079 34.79C158.556 34.79 158.857 28.7121 158.857 28.7121V4.7043H166.387ZM169.098 1.96924H156.146V28.5936C156.122 28.8124 155.992 29.6845 155.486 30.4868C155.058 31.1584 154.242 32.0549 152.079 32.0549C149.916 32.0549 149.1 31.1615 148.672 30.4868C148.166 29.6876 148.037 28.8124 148.013 28.5936V1.96924H135.06V28.8367C135.069 28.9734 135.232 32.219 136.807 35.7625C138.979 40.6461 142.75 43.8248 147.718 44.9553C149.064 45.2683 150.537 45.4264 152.079 45.4264C153.621 45.4264 155.094 45.2683 156.45 44.9523C161.408 43.8248 165.179 40.6461 167.351 35.7625C168.927 32.219 169.089 28.9734 169.095 28.8367V1.96924H169.098Z" fill="#FCFD63"/>
<path d="M108.1 43.4511V32.5108H104.185V22.1783H108.1V3.33679H127.68V13.6693H118.041V22.1783H126.174V32.5108H118.041V43.4511H108.1Z" fill="url(#paint1_linear_1757_1982)"/>
<path d="M126.325 4.7043V12.3017H116.685V23.5459H124.818V31.1432H116.685V42.0835H109.456V31.1432H105.54V23.5459H109.456V4.7043H126.325ZM129.036 1.96924H106.745V20.8108H102.829V33.8783H106.745V44.8186H119.396V33.8783H127.529V20.8108H119.396V15.0368H129.036V1.96924Z" fill="#FCFD63"/>
<path d="M186.542 34.8113L185.397 43.3538H175.815L179.68 4.34875L192.612 26.8492L205.543 4.34875L209.408 43.3538H199.826L198.681 34.8113L192.612 44.928L186.542 34.8113Z" fill="url(#paint2_linear_1757_1982)"/>
<path d="M204.609 8.69446L207.908 41.9863H201.007L199.507 30.7877L192.606 42.2871L185.704 30.7877L184.204 41.9863H177.306L180.605 8.69446L192.603 29.5752L204.6 8.69446M206.462 0L202.254 7.32389L192.6 24.1233L182.945 7.32389L178.737 0L177.903 8.424L174.604 41.7158L174.306 44.7244H186.572L186.888 42.357L187.358 38.8379L190.28 43.7094L192.6 47.5749L194.919 43.7094L197.841 38.8379L198.311 42.357L198.627 44.7244H210.893L210.595 41.7158L207.296 8.424L206.462 0V0Z" fill="#FCFD63"/>
<path d="M60.9345 43.4511V32.5108H51.4459V43.4511H39.9994V32.5108H36.0835V22.1784H39.9994V3.37024H51.4459V22.1784H60.9345V3.37024H72.381V43.4511H60.9345Z" fill="url(#paint3_linear_1757_1982)"/>
<path d="M71.0255 4.73775V42.0835H62.29V31.1433H50.0905V42.0835H41.355V31.1433H37.439V23.5459H41.355V4.73775H50.0905V23.5459H62.29V4.73775H71.0255ZM73.7366 2.00269H59.579V20.8108H52.8015V2.00269H38.6439V20.8108H34.728V33.8783H38.6439V44.8186H52.8015V33.8783H59.579V44.8186H73.7366V2.00269Z" fill="#FCFD63"/>
<path d="M94.0691 3.37024H82.6226V43.4511H94.0691V3.37024Z" fill="url(#paint4_linear_1757_1982)"/>
<path d="M92.7136 4.73775V42.0835H83.9781V4.73775H92.7136ZM95.4246 2.00269H81.2671V44.8186H95.4246V2.00269Z" fill="#FCFD63"/>
<path d="M230.235 3.37024H218.788V43.4511H230.235V3.37024Z" fill="url(#paint5_linear_1757_1982)"/>
<path d="M228.879 4.73775V42.0835H220.144V4.73775H228.879ZM231.59 2.00269H217.433V44.8186H231.59V2.00269Z" fill="#FCFD63"/>
<path d="M14.9256 44.2533C13.293 44.2533 11.7567 44.0224 10.353 43.5635H10.338L9.96144 43.4298C8.41014 42.8676 7.00945 42.0197 5.7925 40.9044L5.74129 40.8558C4.56351 39.7496 3.59658 38.4124 2.87063 36.8839C2.15672 35.3887 1.65669 33.6717 1.37957 31.7845L1.35547 31.6113V29.6147L10.9977 27.4752L11.2838 29.9824C11.3862 30.8849 11.5308 31.6508 11.7085 32.2586C11.7808 32.5077 11.8622 32.7266 11.9465 32.9119C11.9977 33.0244 12.0369 33.0943 12.064 33.1399L12.1995 33.2796L12.2628 33.4103C12.4044 33.5896 12.552 33.7446 12.7056 33.8753C12.8924 34.0363 13.1032 34.1731 13.3321 34.2825C13.8201 34.5165 14.4286 34.6381 15.1455 34.6381C15.6877 34.6381 16.1727 34.553 16.5854 34.3828L16.6697 34.3494C16.983 34.2126 17.2993 34.0029 17.5854 33.7355L17.6999 33.62C18.0252 33.2888 18.2722 32.9089 18.4349 32.4895L18.465 32.4105C18.6186 31.979 18.6969 31.4836 18.6969 30.9396C18.6969 30.5385 18.6487 30.1708 18.5584 29.8517L18.5222 29.7393C18.4319 29.4597 18.2813 29.1892 18.0794 28.94L18.0403 28.8944C17.7782 28.5784 17.4258 28.2745 16.9619 27.9706C16.4257 27.6181 15.769 27.2716 15.01 26.9404L11.6031 25.509C9.55479 24.6368 7.84685 23.5793 6.51845 22.3607C5.82865 21.7286 5.22319 21.0296 4.72014 20.2911C4.20806 19.5284 3.80442 18.72 3.51525 17.8812L3.38873 17.5105V17.4953C3.08751 16.5015 2.93388 15.4379 2.93388 14.3317C2.93388 12.6512 3.25921 11.0892 3.90081 9.67301L4.5123 8.3389H4.62676C5.19306 7.45153 5.89793 6.63101 6.73232 5.88646C7.98541 4.76509 9.38912 3.92633 10.9223 3.37932C12.4194 2.83839 14.0792 2.56488 15.8534 2.56488C18.0885 2.56488 20.1247 3.07239 21.9291 4.06917H21.9592L22.2966 4.27581L22.5165 4.41561C24.4232 5.61903 26.0649 7.40594 27.3963 9.73379L28.5108 11.6848L20.2784 16.611L19.1367 14.6083C18.7963 14.0096 18.4831 13.5446 18.1819 13.183C18.0493 13.025 17.9348 12.9034 17.8294 12.8092C17.7391 12.7272 17.6848 12.6877 17.6276 12.6542L17.4619 12.5539C17.3053 12.4689 17.1246 12.399 16.9167 12.3473C16.5974 12.2683 16.239 12.2288 15.8142 12.2288H15.769C15.3503 12.2288 14.9618 12.2835 14.6184 12.3868L14.4979 12.4293C14.1786 12.5387 13.8894 12.6998 13.6364 12.9095L13.5641 12.9703C13.3713 13.1344 13.2147 13.3137 13.1092 13.496L13.0641 13.5872L13.0128 13.7027C12.9827 13.7817 12.9586 13.8607 12.9436 13.9397C12.9134 14.0734 12.9014 14.2132 12.9014 14.3864C12.9014 14.4928 12.9195 14.6144 12.9526 14.7055L12.9767 14.7663C13.0279 14.8939 13.1333 15.052 13.2659 15.1978C13.4496 15.4014 13.6966 15.599 14.0219 15.8087C14.3955 16.0487 14.8413 16.2767 15.3534 16.4894L18.8807 17.9451C20.4531 18.5863 21.8508 19.3187 23.0376 20.127C24.2726 20.9658 25.3118 21.9139 26.1221 22.9411C26.9535 23.9956 27.5861 25.1869 28.0018 26.4815L28.1102 26.831V26.8462C28.4385 27.9949 28.6072 29.2439 28.6102 30.5567V30.6084C28.6072 32.529 28.2789 34.325 27.6343 35.9448L27.3541 36.5891C26.7065 37.984 25.8028 39.2573 24.6672 40.3756C24.0136 41.0199 23.3117 41.5912 22.5857 42.0744C21.8387 42.5667 21.0495 42.977 20.2362 43.2991C19.4139 43.6273 18.5524 43.8704 17.6728 44.0284C16.8053 44.1865 15.8835 44.2685 14.9407 44.2685H14.9196L14.9256 44.2533Z" fill="url(#paint6_linear_1757_1982)"/>
<path d="M15.8806 3.92937C17.9862 3.92937 19.899 4.43384 21.5738 5.43366H21.5828L21.8027 5.57345C23.5197 6.65532 25.0077 8.2842 26.2247 10.4145L26.6705 11.1955L25.9024 11.6544L21.5587 14.2527L20.7695 14.7238L20.3116 13.9215C19.9321 13.2529 19.5736 12.7211 19.2182 12.2956C19.0435 12.0859 18.8838 11.9188 18.7272 11.779C18.5886 11.6514 18.4621 11.5572 18.3145 11.469L18.2091 11.4052L18.2031 11.3991C17.9199 11.232 17.5976 11.1013 17.2391 11.0132C16.8174 10.9068 16.3505 10.8552 15.8144 10.8552H15.7692C15.2059 10.8552 14.6818 10.9311 14.2058 11.077L14.0612 11.1256C13.5672 11.2958 13.1214 11.5511 12.7298 11.8823L12.7208 11.8914L12.6907 11.9158C12.3623 12.1923 12.0972 12.5114 11.9135 12.8457L11.8442 12.9855L11.7689 13.1496C11.7026 13.3137 11.6514 13.4778 11.6183 13.648C11.5701 13.8637 11.549 14.0977 11.549 14.3712C11.549 14.6417 11.5972 14.9334 11.6906 15.1826L11.7237 15.2647C11.8382 15.5473 12.028 15.8391 12.272 16.1065C12.534 16.3952 12.8684 16.6687 13.2991 16.9452C13.7389 17.2279 14.26 17.4953 14.8444 17.7354L18.2151 19.1272L18.3778 19.1941C19.8598 19.7988 21.1731 20.4856 22.2816 21.2393C23.4022 22.0021 24.339 22.853 25.0619 23.7707C25.7909 24.6976 26.3482 25.743 26.7126 26.8796L26.7578 27.0194C27.0862 28.0982 27.2549 29.2773 27.2579 30.5355V30.5841C27.2549 32.3284 26.9597 33.9543 26.3783 35.41L26.1283 35.9813C25.5499 37.2272 24.7426 38.3669 23.7215 39.3697C23.1311 39.9532 22.4985 40.4698 21.8419 40.9044C21.1761 41.342 20.4683 41.7097 19.7393 42.0015C19.0013 42.2962 18.2241 42.515 17.4349 42.6579C16.6427 42.8037 15.8053 42.8767 14.9378 42.8767H14.9167C13.3473 42.8767 11.8834 42.6457 10.564 42.1868H10.558L10.4104 42.1321C9.02777 41.6337 7.7807 40.874 6.6963 39.8833L6.67822 39.8651C5.61791 38.8713 4.74436 37.6649 4.0877 36.2821C3.43404 34.9116 2.97317 33.3283 2.71713 31.5748L2.70809 31.5049V30.7056L3.41898 30.5476L8.84403 29.3442L9.81999 29.1284L9.93446 30.1313C10.0459 31.1098 10.2056 31.9547 10.4074 32.6415C10.5008 32.9545 10.6032 33.2401 10.7176 33.4863C10.8201 33.7081 10.9104 33.8631 11.0128 34.006L11.0761 34.0728L11.1062 34.1336C11.3291 34.4314 11.5701 34.6928 11.8261 34.9116C12.1033 35.1486 12.4075 35.3492 12.7449 35.5102C13.4136 35.8354 14.2209 35.9995 15.1426 35.9995C15.8595 35.9995 16.5162 35.881 17.0915 35.644L17.1729 35.6105C17.6669 35.3978 18.1217 35.0939 18.5284 34.708L18.6579 34.5773C19.1158 34.1123 19.4652 33.5744 19.6941 32.9788L19.7273 32.8937C19.9411 32.3072 20.0466 31.6477 20.0466 30.9366C20.0466 30.3957 19.9803 29.8942 19.8477 29.4414L19.8056 29.3077C19.658 28.858 19.423 28.4355 19.1037 28.0466L19.0766 28.0131C18.7272 27.5907 18.2754 27.2017 17.703 26.8219C17.1036 26.4268 16.3776 26.0408 15.5463 25.6792L15.5312 25.6731L12.1244 24.2418C10.2236 23.4334 8.64221 22.4579 7.43128 21.3426C6.8198 20.7804 6.28362 20.1665 5.83781 19.5101C5.39501 18.8507 5.04559 18.1487 4.79557 17.4254L4.74436 17.2765C4.44314 16.3557 4.28952 15.365 4.28952 14.3226V14.3044C4.28952 12.8396 4.57267 11.466 5.13294 10.2291L5.37694 9.69732H5.39802C5.94324 8.67623 6.69027 7.73719 7.62708 6.90147L7.64817 6.8802C8.75065 5.89254 10.0037 5.14495 11.3713 4.65568C12.7268 4.16641 14.2299 3.91722 15.8475 3.91722H15.8716M15.8716 1.18215H15.8475C13.9197 1.18215 12.1063 1.48301 10.4586 2.07864C8.76872 2.6834 7.2144 3.61028 5.84986 4.83194L5.82877 4.85018L5.77455 4.8988C5.06969 5.53698 4.44615 6.22378 3.91299 6.95617H3.6449L2.91895 8.54251L2.67495 9.07433C1.94599 10.6819 1.58151 12.4354 1.58151 14.2953V14.3135C1.58151 15.4805 1.73513 16.6079 2.03636 17.6746V17.7171L2.18095 18.1487L2.23215 18.2976V18.3067L2.23818 18.3158C2.5635 19.264 3.02136 20.1787 3.5967 21.0357V21.0418L3.60574 21.0478C4.16903 21.8744 4.84377 22.6524 5.60888 23.3574C6.81378 24.4636 8.2958 25.4422 10.0248 26.2779L9.23863 26.4511L8.26266 26.6669L2.83762 27.8703L2.12673 28.0283L-0.00292969 28.4994V31.6903L0.0241805 31.8817L0.0332172 31.9516V31.9668C0.331429 33.9938 0.873633 35.8415 1.64778 37.4613C2.44301 39.1327 3.50031 40.5975 4.78955 41.813L4.79557 41.8191L4.84979 41.8708L4.86787 41.889L4.87389 41.8951L4.87992 41.9012C6.22639 43.138 7.78372 44.0801 9.5007 44.7031L9.64829 44.7578L10.0911 44.9189H10.1393C11.6213 45.3777 13.2268 45.6087 14.9197 45.6087H14.9408C15.968 45.6087 16.9711 45.5206 17.9199 45.3474C18.8778 45.1741 19.8297 44.9037 20.7333 44.5451C21.634 44.1865 22.5045 43.7337 23.3239 43.1958C24.1342 42.6609 24.9023 42.0318 25.6192 41.3268C26.8693 40.093 27.8663 38.686 28.5833 37.1422L28.5983 37.1118L28.6104 37.0814L28.8604 36.5101L28.8785 36.4675L28.8965 36.425C29.6044 34.6441 29.9659 32.6779 29.9689 30.5841V30.5324C29.9659 29.1558 29.7972 27.849 29.4689 26.6304V26.5939L29.3423 26.1867L29.2972 26.0469V26.0378L29.2911 26.0287C28.8272 24.5791 28.1164 23.242 27.1856 22.0598C26.2879 20.9202 25.1463 19.8778 23.7968 18.9601C23.0528 18.4556 22.2365 17.9785 21.3509 17.5318L22.1461 17.0546L22.9353 16.5836L27.2789 13.9853L28.0471 13.5264L30.3514 12.1498L29.014 9.80976L28.5682 9.02874C27.1283 6.50641 25.333 4.55844 23.2335 3.23345L23.0136 3.09366L22.3539 2.67732H22.2636C20.3387 1.6775 18.191 1.17303 15.8746 1.17303L15.8716 1.18215ZM15.0191 13.6723C15.236 13.6115 15.492 13.5781 15.7752 13.5781H15.8083C16.1216 13.5781 16.3716 13.6024 16.5765 13.654C16.6849 13.6814 16.7512 13.7087 16.7903 13.727L16.8024 13.7361L16.9048 13.7999L16.9108 13.806L16.9198 13.8121C16.959 13.8455 17.0283 13.9154 17.1397 14.0491C17.3837 14.3378 17.6578 14.7511 17.953 15.2708L18.4109 16.0731L18.5434 16.304L15.8656 15.2009C15.4288 15.0216 15.0553 14.8301 14.751 14.6356C14.4709 14.4563 14.3323 14.3317 14.2661 14.2558L14.26 14.2466V14.2254V14.2132L14.2661 14.2011L14.2841 14.1585L14.2902 14.1464C14.3082 14.119 14.3504 14.0673 14.4257 14.0035L14.4558 13.9792L14.5311 13.9154C14.6486 13.8242 14.7781 13.7574 14.9257 13.7057L15.0161 13.6753L15.0191 13.6723ZM13.1636 32.3163C13.1244 32.2282 13.0642 32.0823 13.0009 31.8635C12.8443 31.3347 12.7148 30.6266 12.6214 29.8152L12.5069 28.8124L12.3322 27.2868L14.4558 28.1772L14.4709 28.1833C15.1607 28.4811 15.7481 28.7911 16.218 29.1011C16.5614 29.329 16.8235 29.5508 16.9982 29.7605L17.0223 29.7909L17.0313 29.8C17.1247 29.9186 17.1909 30.0371 17.2301 30.1556L17.2572 30.2407C17.3084 30.4321 17.3385 30.6692 17.3385 30.9305C17.3385 31.3074 17.2904 31.6416 17.194 31.9212L17.1759 31.9638V31.9759L17.1669 31.9881C17.0735 32.2312 16.9319 32.447 16.7361 32.6475L16.6397 32.7448C16.4831 32.8907 16.3114 33.0061 16.1306 33.0851L16.0855 33.1034H16.0794L16.0734 33.1095C15.8264 33.2097 15.5041 33.2644 15.1426 33.2644C14.504 33.2644 14.1215 33.1459 13.9166 33.0456C13.7871 32.9849 13.6787 32.9119 13.5793 32.8299C13.519 32.7782 13.4588 32.7205 13.3985 32.6506L13.3112 32.4743L13.1666 32.3224L13.1636 32.3163Z" fill="#FCFD63"/>
</g>
<defs>
<linearGradient id="paint0_linear_1757_1982" x1="152.079" y1="44.0588" x2="152.079" y2="3.33679" gradientUnits="userSpaceOnUse">
<stop stop-color="#E3181C"/>
<stop offset="1" stop-color="#8B1015"/>
</linearGradient>
<linearGradient id="paint1_linear_1757_1982" x1="115.932" y1="43.4511" x2="115.932" y2="1.39174e-05" gradientUnits="userSpaceOnUse">
<stop stop-color="#E3181C"/>
<stop offset="1" stop-color="#8B1015"/>
</linearGradient>
<linearGradient id="paint2_linear_1757_1982" x1="192.612" y1="44.928" x2="192.612" y2="4.34875" gradientUnits="userSpaceOnUse">
<stop stop-color="#E3181C"/>
<stop offset="1" stop-color="#8B1015"/>
</linearGradient>
<linearGradient id="paint3_linear_1757_1982" x1="54.2323" y1="43.4511" x2="54.2323" y2="3.37024" gradientUnits="userSpaceOnUse">
<stop stop-color="#E3181C"/>
<stop offset="1" stop-color="#8B1015"/>
</linearGradient>
<linearGradient id="paint4_linear_1757_1982" x1="88.3458" y1="43.4511" x2="88.3458" y2="3.37024" gradientUnits="userSpaceOnUse">
<stop stop-color="#E3181C"/>
<stop offset="1" stop-color="#8B1015"/>
</linearGradient>
<linearGradient id="paint5_linear_1757_1982" x1="224.511" y1="43.4511" x2="224.511" y2="3.37024" gradientUnits="userSpaceOnUse">
<stop stop-color="#E3181C"/>
<stop offset="1" stop-color="#8B1015"/>
</linearGradient>
<linearGradient id="paint6_linear_1757_1982" x1="1.35547" y1="23.4091" x2="28.6193" y2="23.4091" gradientUnits="userSpaceOnUse">
<stop stop-color="#E3181C"/>
<stop offset="1" stop-color="#8B1015"/>
</linearGradient>
<clipPath id="clip0_1757_1982">
<rect width="234" height="50" fill="white"/>
</clipPath>
</defs>
</svg>
