<svg width="20" height="21" viewBox="0 0 20 21" fill="none" xmlns="http://www.w3.org/2000/svg">
<path d="M17.5 0.5H2.5C1.79688 0.526042 1.21094 0.773438 0.742188 1.24219C0.273438 1.71094 0.0260417 2.28385 0 2.96094V14.1719C0.0260417 14.9271 0.273438 15.5391 0.742188 16.0078C1.21094 16.4766 1.79688 16.7109 2.5 16.7109H6.25V19.9531C6.25 20.1615 6.34115 20.3047 6.52344 20.3828C6.67969 20.4609 6.83594 20.4479 6.99219 20.3438L11.875 16.7109H17.5C18.2031 16.6849 18.7891 16.4375 19.2578 15.9688C19.7266 15.5 19.974 14.9271 20 14.25V2.96094C19.974 2.28385 19.7266 1.71094 19.2578 1.24219C18.7891 0.773438 18.2031 0.526042 17.5 0.5ZM18.125 14.25C18.099 14.6406 17.8906 14.849 17.5 14.875H11.25L8.125 17.2188V14.875H2.5C2.10938 14.849 1.90104 14.6406 1.875 14.25V3C1.90104 2.60938 2.10938 2.40104 2.5 2.375H17.5C17.8906 2.40104 18.099 2.60938 18.125 3V14.25ZM9.72656 10.9688C9.1276 11.0208 8.80208 11.3594 8.75 11.9844C8.80208 12.6094 9.1276 12.9479 9.72656 13C10.3776 12.9479 10.7292 12.6094 10.7812 11.9844C10.7292 11.3594 10.3776 11.0208 9.72656 10.9688ZM10.8594 4.25H9.14062C8.48958 4.27604 7.95573 4.4974 7.53906 4.91406C7.1224 5.33073 6.90104 5.86458 6.875 6.51562C6.92708 6.98438 7.1875 7.24479 7.65625 7.29688C8.125 7.24479 8.38542 6.98438 8.4375 6.51562C8.48958 6.07292 8.72396 5.83854 9.14062 5.8125H10.8594C11.276 5.83854 11.5104 6.07292 11.5625 6.51562C11.5625 6.77604 11.4453 6.98438 11.2109 7.14062L9.33594 8.23438C9.07552 8.39062 8.94531 8.61198 8.94531 8.89844V9.40625C8.9974 9.875 9.25781 10.1354 9.72656 10.1875C10.1953 10.1354 10.4557 9.875 10.5078 9.40625V9.36719L12.0312 8.42969C12.7344 7.98698 13.099 7.34896 13.125 6.51562C13.099 5.86458 12.8776 5.33073 12.4609 4.91406C12.0443 4.4974 11.5104 4.27604 10.8594 4.25Z" fill="black"/>
</svg>
