<svg width="88" height="88" viewBox="0 0 88 88" fill="none" xmlns="http://www.w3.org/2000/svg">
<g filter="url(#filter0_d_1804_6897)">
<circle cx="44" cy="40" r="38.5" fill="#7FCFDA" stroke="black" stroke-width="3"/>
<path d="M62.5 42.6345V47.864C62.5 52.2089 61.2496 56.4947 58.7646 60.061C56.0437 63.9694 51.4708 67.7206 43.9528 67.7206C36.4349 67.7206 31.8816 63.9694 29.1803 60.061C26.7268 56.5105 25.5 52.26 25.5 47.9466L25.5 32.6826C25.5 30.465 27.2969 28.6681 29.5106 28.6681C31.7243 28.6681 33.5252 30.465 33.5252 32.6826V30.5318C33.5252 29.4977 33.9459 28.558 34.6222 27.8777C35.3024 27.2014 36.2422 26.7807 37.2763 26.7807C39.3485 26.7807 41.0274 28.4597 41.0274 30.5318V16.0307C41.0274 14.9965 41.4481 14.0607 42.1244 13.3805C42.8047 12.7003 43.7444 12.2795 44.7785 12.2795C46.8507 12.2795 48.5296 13.9624 48.5296 16.0307V34.2621L53.3267 17.8472C53.7946 16.1919 55.2966 15.1106 56.9362 15.1106C57.2705 15.1106 57.6125 15.1578 57.9546 15.2521C59.9481 15.8144 61.112 17.8826 60.5497 19.8801L55.4185 38.097H57.9625C60.4672 38.097 62.5 40.1298 62.5 42.6345Z" fill="white" stroke="black" stroke-width="3" stroke-miterlimit="10" stroke-linecap="round"/>
<path d="M33.5256 41.046V32.6827C33.5256 30.4655 31.7291 28.6681 29.513 28.6681C27.2969 28.6681 25.5004 30.4655 25.5004 32.6827V41.046C25.5004 43.2632 27.2969 45.0605 29.513 45.0605C31.7291 45.0605 33.5256 43.2632 33.5256 41.046Z" fill="white" stroke="black" stroke-width="3" stroke-miterlimit="10" stroke-linecap="round"/>
<path d="M41.028 41.3095V30.5319C41.028 28.4602 39.3485 26.7808 37.2768 26.7808C35.2052 26.7808 33.5257 28.4602 33.5257 30.5319V41.3095C33.5257 43.3811 35.2052 45.0606 37.2768 45.0606C39.3485 45.0606 41.028 43.3811 41.028 41.3095Z" fill="white" stroke="black" stroke-width="3" stroke-miterlimit="10" stroke-linecap="round"/>
<path d="M62.5 47.813V42.6346C62.5 40.1299 60.4671 38.097 57.9625 38.097H50.7197C49.7603 38.097 48.8874 38.4863 48.2583 39.1194C47.641 39.7367 47.2557 40.586 47.2399 41.5257C47.2085 43.4681 48.8953 45.0606 50.8416 45.0606H54.2939C54.3922 45.0606 54.4748 45.1432 54.4748 45.2415V47.813" fill="white"/>
<path d="M62.5 47.813V42.6346C62.5 40.1299 60.4671 38.097 57.9625 38.097H50.7197C49.7603 38.097 48.8874 38.4863 48.2583 39.1194C47.641 39.7367 47.2557 40.586 47.2399 41.5257C47.2085 43.4681 48.8953 45.0606 50.8416 45.0606H54.2939C54.3922 45.0606 54.4748 45.1432 54.4748 45.2415V47.813" stroke="black" stroke-width="3" stroke-miterlimit="10" stroke-linecap="round"/>
<path d="M54.4759 47.8129C54.4759 47.8129 46.6316 47.0973 42.9866 53.7384L54.4759 47.8129Z" fill="white"/>
<path d="M54.4759 47.8129C54.4759 47.8129 46.6316 47.0973 42.9866 53.7384" stroke="black" stroke-width="3" stroke-miterlimit="10" stroke-linecap="round"/>
</g>
<defs>
<filter id="filter0_d_1804_6897" x="0" y="0" width="88" height="88" filterUnits="userSpaceOnUse" color-interpolation-filters="sRGB">
<feFlood flood-opacity="0" result="BackgroundImageFix"/>
<feColorMatrix in="SourceAlpha" type="matrix" values="0 0 0 0 0 0 0 0 0 0 0 0 0 0 0 0 0 0 127 0" result="hardAlpha"/>
<feOffset dy="4"/>
<feGaussianBlur stdDeviation="2"/>
<feComposite in2="hardAlpha" operator="out"/>
<feColorMatrix type="matrix" values="0 0 0 0 0 0 0 0 0 0 0 0 0 0 0 0 0 0 0.25 0"/>
<feBlend mode="normal" in2="BackgroundImageFix" result="effect1_dropShadow_1804_6897"/>
<feBlend mode="normal" in="SourceGraphic" in2="effect1_dropShadow_1804_6897" result="shape"/>
</filter>
</defs>
</svg>
