<svg width="88" height="88" viewBox="0 0 88 88" fill="none" xmlns="http://www.w3.org/2000/svg">
<g filter="url(#filter0_d_1804_6898)">
<circle cx="44" cy="40" r="38.5" fill="#FDDE58" stroke="black" stroke-width="3"/>
<path d="M26.0137 40.9679L26.0137 27.7329C26.0137 25.6669 27.6886 23.9919 29.7546 23.9919C31.8205 23.9919 33.4955 25.6669 33.4955 27.7329V40.9679" fill="white"/>
<path d="M26.0137 40.9679L26.0137 27.7329C26.0137 25.6669 27.6886 23.9919 29.7546 23.9919C31.8205 23.9919 33.4955 25.6669 33.4955 27.7329V40.9679" stroke="black" stroke-width="3" stroke-miterlimit="10" stroke-linecap="round"/>
<path d="M58.6393 32.4856C56.5542 32.3514 54.8217 34.0073 54.8217 36.0579V20.0095C54.8217 18.0317 53.2157 16.4296 51.2418 16.4296C49.2678 16.4296 47.6618 18.0317 47.6618 20.0095V16.3261C47.6618 14.3522 46.0597 12.75 44.0819 12.75C42.108 12.75 40.5058 14.3522 40.5058 16.3261V19.699C40.5058 17.6906 38.8117 16.077 36.7726 16.2073C34.9098 16.3261 33.5031 17.9512 33.5031 19.8179V27.7328C33.5031 25.5864 31.694 23.8616 29.5131 23.9996C27.5238 24.126 26.0175 25.8662 26.0175 27.8593L26.0175 48.2197C26.0175 51.5696 26.7457 54.8927 28.2674 57.8747C30.5556 62.3592 35.1091 67.25 44.0857 67.25C53.0624 67.25 57.9033 61.9759 60.0574 57.3573C61.3683 54.5516 61.9854 51.47 61.9854 48.373V36.1805C61.9854 34.2717 60.5442 32.6083 58.6431 32.4856H58.6393Z" fill="white" stroke="black" stroke-width="3" stroke-miterlimit="10" stroke-linecap="round"/>
<path d="M33.4996 39.1932L33.4996 19.6991C33.4996 17.7635 35.0673 16.1958 37.0029 16.1958C38.9385 16.1958 40.5062 17.7635 40.5062 19.6991V39.1932" fill="white"/>
<path d="M33.4996 39.1932L33.4996 19.6991C33.4996 17.7635 35.0673 16.1958 37.0029 16.1958C38.9385 16.1958 40.5062 17.7635 40.5062 19.6991V39.1932" stroke="black" stroke-width="3" stroke-miterlimit="10" stroke-linecap="round"/>
<path d="M40.5018 39.1932L40.5018 16.3261C40.5018 14.3522 42.1039 12.75 44.0779 12.75H44.0817C46.0556 12.75 47.6578 14.3522 47.6578 16.3261L47.6578 39.1932" fill="white"/>
<path d="M40.5018 39.1932L40.5018 16.3261C40.5018 14.3522 42.1039 12.75 44.0779 12.75H44.0817C46.0556 12.75 47.6578 14.3522 47.6578 16.3261L47.6578 39.1932" stroke="black" stroke-width="3" stroke-miterlimit="10" stroke-linecap="round"/>
<path d="M47.6613 39.1932L47.6613 20.0095C47.6613 18.0317 49.2635 16.4296 51.2412 16.4296C53.219 16.4296 54.8212 18.0317 54.8212 20.0095V39.1932" fill="white"/>
<path d="M47.6613 39.1932L47.6613 20.0095C47.6613 18.0317 49.2635 16.4296 51.2412 16.4296C53.219 16.4296 54.8212 18.0317 54.8212 20.0095V39.1932" stroke="black" stroke-width="3" stroke-miterlimit="10" stroke-linecap="round"/>
<path d="M54.8227 46.0847V36.0578C54.8227 34.0801 56.4248 32.4779 58.4026 32.4779C60.3804 32.4779 61.9825 34.0801 61.9825 36.0578V46.0847" fill="white"/>
<path d="M54.8227 46.0847V36.0578C54.8227 34.0801 56.4248 32.4779 58.4026 32.4779C60.3804 32.4779 61.9825 34.0801 61.9825 36.0578V46.0847" stroke="black" stroke-width="3" stroke-miterlimit="10" stroke-linecap="round"/>
<path d="M43.5906 52.5585C46.3771 46.5715 54.8171 46.0847 54.8171 46.0847L43.5906 52.5585Z" fill="white"/>
<path d="M43.5906 52.5585C46.3771 46.5715 54.8171 46.0847 54.8171 46.0847" stroke="black" stroke-width="3" stroke-miterlimit="10" stroke-linecap="round"/>
</g>
<defs>
<filter id="filter0_d_1804_6898" x="0" y="0" width="88" height="88" filterUnits="userSpaceOnUse" color-interpolation-filters="sRGB">
<feFlood flood-opacity="0" result="BackgroundImageFix"/>
<feColorMatrix in="SourceAlpha" type="matrix" values="0 0 0 0 0 0 0 0 0 0 0 0 0 0 0 0 0 0 127 0" result="hardAlpha"/>
<feOffset dy="4"/>
<feGaussianBlur stdDeviation="2"/>
<feComposite in2="hardAlpha" operator="out"/>
<feColorMatrix type="matrix" values="0 0 0 0 0 0 0 0 0 0 0 0 0 0 0 0 0 0 0.25 0"/>
<feBlend mode="normal" in2="BackgroundImageFix" result="effect1_dropShadow_1804_6898"/>
<feBlend mode="normal" in="SourceGraphic" in2="effect1_dropShadow_1804_6898" result="shape"/>
</filter>
</defs>
</svg>
