<svg width="88" height="88" viewBox="0 0 88 88" fill="none" xmlns="http://www.w3.org/2000/svg">
<g filter="url(#filter0_d_1804_6899)">
<circle cx="44" cy="40" r="38.5" fill="#E85581" stroke="black" stroke-width="3"/>
<path d="M62.001 35.6128V41.5406C62.001 45.5986 60.8347 49.6011 58.5132 52.9297C55.9103 56.6582 51.4746 60.2348 44.0324 60.2348C36.5903 60.2348 32.1361 56.6582 29.5221 52.9297C27.1784 49.59 26.001 45.569 26.001 41.4888L26.001 25.5789C26.001 24.5385 26.4231 23.5906 27.108 22.9093C27.7893 22.2244 28.7335 21.8023 29.7776 21.8023C31.8658 21.8023 33.5579 23.4943 33.5579 25.5789V23.6683C33.5579 21.5875 35.187 19.8029 37.2679 19.7658C39.3487 19.7288 41.1148 21.4357 41.1148 23.5425C41.1148 22.502 41.5369 21.5542 42.2219 20.8729C42.9032 20.1879 43.851 19.7658 44.8914 19.7658C46.9797 19.7658 48.6718 21.4579 48.6718 23.5425V25.5789C48.6718 23.4721 50.4009 21.7652 52.5187 21.8023C54.6366 21.8393 56.2287 23.6239 56.2287 25.7048V30.8291H57.2173C59.8609 30.8291 62.001 32.9692 62.001 35.6128Z" fill="white" stroke="black" stroke-width="3" stroke-miterlimit="10" stroke-linecap="round"/>
<path d="M33.5569 34.0725V25.5826C33.5569 23.4948 31.8653 21.8022 29.7785 21.8022C27.6917 21.8022 26 23.4948 26 25.5826V34.0725C26 36.1603 27.6917 37.8528 29.7785 37.8528C31.8653 37.8528 33.5569 36.1603 33.5569 34.0725Z" fill="white" stroke="black" stroke-width="3" stroke-miterlimit="10" stroke-linecap="round"/>
<path d="M62.0008 40.6446V35.6165C62.0008 32.9729 59.857 30.8291 57.2133 30.8291H50.3969C49.7675 30.8291 49.1825 30.992 48.6715 31.2808C48.3938 31.44 48.1421 31.6326 47.9162 31.8584C47.2794 32.4953 46.8869 33.3728 46.8869 34.3428C46.8869 35.2018 47.1942 35.9831 47.7089 36.594C47.9755 36.9161 48.3013 37.1901 48.6715 37.4011C49.1825 37.6899 49.7675 37.8529 50.3969 37.8529L54.1915 37.8516C54.3295 37.8516 54.4414 37.9634 54.4416 38.1014L54.4438 40.6446" fill="white"/>
<path d="M62.0008 40.6446V35.6165C62.0008 32.9729 59.857 30.8291 57.2133 30.8291H50.3969C49.7675 30.8291 49.1825 30.992 48.6715 31.2808C48.3938 31.44 48.1421 31.6326 47.9162 31.8584C47.2794 32.4953 46.8869 33.3728 46.8869 34.3428C46.8869 35.2018 47.1942 35.9831 47.7089 36.594C47.9755 36.9161 48.3013 37.1901 48.6715 37.4011C49.1825 37.6899 49.7675 37.8529 50.3969 37.8529L54.1915 37.8516C54.3295 37.8516 54.4414 37.9634 54.4416 38.1014L54.4438 40.6446" stroke="black" stroke-width="3" stroke-miterlimit="10" stroke-linecap="round"/>
<path d="M48.671 37.4011C49.1819 37.6899 49.7669 37.8528 50.3964 37.8528L48.671 37.4011Z" fill="white"/>
<path d="M48.671 37.4011C49.1819 37.6899 49.7669 37.8528 50.3964 37.8528" stroke="black" stroke-width="3" stroke-miterlimit="10" stroke-linecap="round"/>
<path d="M41.115 34.0726V23.5462C41.115 21.4584 39.4233 19.7659 37.3365 19.7659C35.2497 19.7659 33.5581 21.4584 33.5581 23.5462V34.0726C33.5581 36.1604 35.2497 37.8529 37.3365 37.8529C39.4233 37.8529 41.115 36.1604 41.115 34.0726Z" fill="white" stroke="black" stroke-width="3" stroke-miterlimit="10" stroke-linecap="round"/>
<path d="M47.5649 20.8729C46.8799 20.188 45.9357 19.7659 44.8916 19.7659C42.8071 19.7659 41.115 21.4579 41.115 23.5425V34.0726C41.115 36.1608 42.8071 37.8529 44.8916 37.8529C46.0098 37.8529 47.0169 37.3678 47.7093 36.594C47.1946 35.9831 46.8873 35.2018 46.8873 34.3429C46.8873 33.3728 47.2798 32.4953 47.9166 31.8584C48.1424 31.6326 48.3942 31.44 48.6719 31.2808V23.5425C48.6719 22.5021 48.2498 21.5542 47.5649 20.8729Z" fill="white" stroke="black" stroke-width="3" stroke-miterlimit="10" stroke-linecap="round"/>
<path d="M54.4468 40.6447C54.4468 40.6447 45.5459 40.8705 43.2244 46.6169L54.4468 40.6447Z" fill="white"/>
<path d="M54.4468 40.6447C54.4468 40.6447 45.5459 40.8705 43.2244 46.6169" stroke="black" stroke-width="3" stroke-miterlimit="10" stroke-linecap="round"/>
</g>
<defs>
<filter id="filter0_d_1804_6899" x="0" y="0" width="88" height="88" filterUnits="userSpaceOnUse" color-interpolation-filters="sRGB">
<feFlood flood-opacity="0" result="BackgroundImageFix"/>
<feColorMatrix in="SourceAlpha" type="matrix" values="0 0 0 0 0 0 0 0 0 0 0 0 0 0 0 0 0 0 127 0" result="hardAlpha"/>
<feOffset dy="4"/>
<feGaussianBlur stdDeviation="2"/>
<feComposite in2="hardAlpha" operator="out"/>
<feColorMatrix type="matrix" values="0 0 0 0 0 0 0 0 0 0 0 0 0 0 0 0 0 0 0.25 0"/>
<feBlend mode="normal" in2="BackgroundImageFix" result="effect1_dropShadow_1804_6899"/>
<feBlend mode="normal" in="SourceGraphic" in2="effect1_dropShadow_1804_6899" result="shape"/>
</filter>
</defs>
</svg>
