<svg width="23" height="21" viewBox="0 0 23 21" fill="none" xmlns="http://www.w3.org/2000/svg">
<path d="M10.875 4.25C11.3958 4.22396 11.8385 4.04167 12.2031 3.70312C12.5417 3.33854 12.724 2.89583 12.75 2.375C12.724 1.82812 12.5417 1.38542 12.2031 1.04688C11.8385 0.682292 11.3958 0.5 10.875 0.5C10.3542 0.5 9.91146 0.682292 9.54688 1.04688C9.20833 1.38542 9.02604 1.82812 9 2.375C9.02604 2.89583 9.20833 3.33854 9.54688 3.70312C9.91146 4.04167 10.3542 4.22396 10.875 4.25ZM5.17188 12.9609L4.39062 14.6797C4.33854 14.8099 4.2474 14.875 4.11719 14.875H1.1875C0.614583 14.9271 0.302083 15.2396 0.25 15.8125C0.302083 16.3854 0.614583 16.6979 1.1875 16.75H4.11719C5.05469 16.6979 5.71875 16.2552 6.10938 15.4219L6.61719 14.25L6.30469 14.0547C5.83594 13.7682 5.45833 13.4036 5.17188 12.9609ZM20.5625 0.5H17.4375C16.8125 0.5 16.2917 0.708333 15.875 1.125C15.4844 1.54167 15.276 2.0625 15.25 2.6875V9.875H13.4531L12.8281 7.84375C12.4115 6.61979 11.5651 5.83854 10.2891 5.5L8.88281 5.1875L7.24219 4.83594C6.17448 4.6276 5.22396 4.83594 4.39062 5.46094L2.47656 6.94531C2.0599 7.33594 2.00781 7.77865 2.32031 8.27344C2.71094 8.6901 3.15365 8.74219 3.64844 8.42969L5.48438 6.94531C5.875 6.65885 6.30469 6.56771 6.77344 6.67188L7.39844 6.78906L6.03125 10.3828C5.82292 10.9036 5.8099 11.4115 5.99219 11.9062C6.17448 12.4271 6.5 12.8177 6.96875 13.0781L10.1719 14.875C10.3021 14.9531 10.3411 15.0703 10.2891 15.2266L9.03906 19.2891C8.9349 19.8359 9.14323 20.2266 9.66406 20.4609C10.2109 20.5651 10.6016 20.3568 10.8359 19.8359L12.0859 15.8125C12.2422 15.2917 12.2292 14.7969 12.0469 14.3281C11.8646 13.8594 11.5391 13.4948 11.0703 13.2344L9.23438 12.2188L10.7969 7.96094C10.901 8.09115 10.9792 8.2474 11.0312 8.42969L11.7344 10.6562C11.9688 11.3333 12.4635 11.6979 13.2188 11.75H15.25V18.3125C15.276 18.9375 15.4844 19.4453 15.875 19.8359C16.2917 20.2526 16.8125 20.474 17.4375 20.5H20.5625C21.1875 20.474 21.7083 20.2526 22.125 19.8359C22.5156 19.4453 22.724 18.9375 22.75 18.3125V2.6875C22.724 2.0625 22.5156 1.54167 22.125 1.125C21.7083 0.708333 21.1875 0.5 20.5625 0.5ZM20.875 18.3125C20.849 18.4948 20.7448 18.599 20.5625 18.625H17.4375C17.2552 18.599 17.151 18.4948 17.125 18.3125V2.6875C17.151 2.47917 17.2552 2.375 17.4375 2.375H20.5625C20.7448 2.375 20.849 2.47917 20.875 2.6875V18.3125Z" fill="black"/>
</svg>
