<svg width="20" height="19" viewBox="0 0 20 19" fill="none" xmlns="http://www.w3.org/2000/svg">
<path d="M0 3.25C0.0260417 2.54688 0.273438 1.96094 0.742188 1.49219C1.21094 1.02344 1.79688 0.776042 2.5 0.75H17.5C18.2031 0.776042 18.7891 1.02344 19.2578 1.49219C19.7266 1.96094 19.974 2.54688 20 3.25V15.75C19.974 16.4531 19.7266 17.0391 19.2578 17.5078C18.7891 17.9766 18.2031 18.224 17.5 18.25H2.5C1.79688 18.224 1.21094 17.9766 0.742188 17.5078C0.273438 17.0391 0.0260417 16.4531 0 15.75V3.25ZM7.5 6.0625H18.125V3.25C18.099 2.85938 17.8906 2.65104 17.5 2.625H7.5V6.0625ZM5.625 2.625H2.5C2.10938 2.65104 1.90104 2.85938 1.875 3.25V6.0625H5.625V2.625ZM1.875 7.9375V11.0625H5.625V7.9375H1.875ZM1.875 12.9375V15.75C1.90104 16.1406 2.10938 16.349 2.5 16.375H5.625V12.9375H1.875ZM7.5 16.375H17.5C17.8906 16.349 18.099 16.1406 18.125 15.75V12.9375H7.5V16.375ZM18.125 11.0625V7.9375H7.5V11.0625H18.125Z" fill="black"/>
</svg>
