<svg width="18" height="21" viewBox="0 0 18 21" fill="none" xmlns="http://www.w3.org/2000/svg">
<path d="M15 14.25H9.6875V9.13281C10.7292 8.89844 11.5495 8.39062 12.1484 7.60938C12.7734 6.82812 13.099 5.91667 13.125 4.875C13.125 4.35417 12.9948 3.75521 12.7344 3.07812C12.474 2.42708 12.0312 1.84115 11.4062 1.32031C10.7552 0.825521 9.86979 0.565104 8.75 0.539062C7.83854 0.539062 6.90104 0.877604 5.9375 1.55469C4.97396 2.25781 4.45312 3.36458 4.375 4.875C4.40104 5.91667 4.72656 6.82812 5.35156 7.60938C5.95052 8.39062 6.77083 8.89844 7.8125 9.13281V14.25H5C5 13.8854 4.88281 13.5859 4.64844 13.3516C4.41406 13.1172 4.11458 13 3.75 13C3.38542 13 3.08594 13.1172 2.85156 13.3516C2.61719 13.5859 2.5 13.8854 2.5 14.25C1.79688 14.276 1.21094 14.5234 0.742188 14.9922C0.273438 15.4609 0.0260417 16.0469 0 16.75V18C0.0260417 18.7031 0.273438 19.2891 0.742188 19.7578C1.21094 20.2266 1.79688 20.474 2.5 20.5H15C15.7031 20.474 16.2891 20.2266 16.7578 19.7578C17.2266 19.2891 17.474 18.7031 17.5 18V16.75C17.474 16.0469 17.2266 15.4609 16.7578 14.9922C16.2891 14.5234 15.7031 14.276 15 14.25ZM6.25 4.875C6.27604 4.17188 6.52344 3.58594 6.99219 3.11719C7.46094 2.64844 8.04688 2.40104 8.75 2.375C9.45312 2.40104 10.0391 2.64844 10.5078 3.11719C10.9766 3.58594 11.224 4.17188 11.25 4.875C11.224 5.57812 10.9766 6.16406 10.5078 6.63281C10.0391 7.10156 9.45312 7.34896 8.75 7.375C8.04688 7.34896 7.46094 7.10156 6.99219 6.63281C6.52344 6.16406 6.27604 5.57812 6.25 4.875ZM15.625 18C15.599 18.3646 15.3906 18.5599 15 18.5859H2.5C2.10938 18.5599 1.90104 18.3646 1.875 18V16.75C1.90104 16.3854 2.10938 16.1901 2.5 16.1641H15C15.3906 16.2161 15.599 16.4115 15.625 16.75V18Z" fill="black"/>
</svg>
