<svg width="18" height="21" viewBox="0 0 18 21" fill="none" xmlns="http://www.w3.org/2000/svg">
<path d="M10.625 12.375H6.875C4.92188 12.4271 3.30729 13.1042 2.03125 14.4062C0.729167 15.6823 0.0520833 17.2969 0 19.25C0 19.6146 0.117188 19.9141 0.351562 20.1484C0.585938 20.3828 0.885417 20.5 1.25 20.5H16.25C16.6146 20.5 16.9141 20.3828 17.1484 20.1484C17.3828 19.9141 17.5 19.6146 17.5 19.25C17.4479 17.2969 16.7708 15.6823 15.4688 14.4062C14.1927 13.1042 12.5781 12.4271 10.625 12.375ZM1.91406 18.625C2.09635 17.375 2.64323 16.3333 3.55469 15.5C4.46615 14.6927 5.57292 14.276 6.875 14.25H10.625C11.9271 14.276 13.0339 14.6927 13.9453 15.5C14.8568 16.3333 15.4036 17.375 15.5859 18.625H1.91406ZM8.75 10.5C10.1562 10.474 11.3411 9.99219 12.3047 9.05469C13.2422 8.09115 13.724 6.90625 13.75 5.5C13.724 4.09375 13.2422 2.90885 12.3047 1.94531C11.3411 1.00781 10.1562 0.526042 8.75 0.5C7.34375 0.526042 6.15885 1.00781 5.19531 1.94531C4.25781 2.90885 3.77604 4.09375 3.75 5.5C3.77604 6.90625 4.25781 8.09115 5.19531 9.05469C6.15885 9.99219 7.34375 10.474 8.75 10.5ZM8.75 2.375C9.63542 2.40104 10.3776 2.70052 10.9766 3.27344C11.5495 3.8724 11.849 4.61458 11.875 5.5C11.849 6.38542 11.5495 7.1276 10.9766 7.72656C10.3776 8.29948 9.63542 8.59896 8.75 8.625C7.86458 8.59896 7.1224 8.29948 6.52344 7.72656C5.95052 7.1276 5.65104 6.38542 5.625 5.5C5.65104 4.61458 5.95052 3.8724 6.52344 3.27344C7.1224 2.70052 7.86458 2.40104 8.75 2.375Z" fill="black"/>
</svg>
